<?xml version="1.0" standalone="no"?>
<!DOCTYPE svg PUBLIC "-//W3C//DTD SVG 20010904//EN"
 "http://www.w3.org/TR/2001/REC-SVG-20010904/DTD/svg10.dtd">
<svg version="1.0" xmlns="http://www.w3.org/2000/svg"
 width="452.000000pt" height="453.000000pt" viewBox="0 0 452.000000 453.000000"
 preserveAspectRatio="xMidYMid meet">

<g transform="translate(0.000000,453.000000) scale(0.100000,-0.100000)"
fill="#000000" stroke="none">
<path d="M80 4230 l1 -210 209 0 209 0 6 33 c3 17 5 111 3 207 l-3 175 -213 3
-213 2 1 -210z m368 20 c4 -186 19 -170 -156 -170 l-147 0 2 147 c1 82 2 149
2 151 1 1 67 1 149 0 l147 -3 3 -125z"/>
<path d="M209 4253 c-1 -38 -3 -78 -4 -90 -2 -22 0 -23 86 -23 49 0 89 3 90 8
0 4 3 33 5 65 3 32 3 69 0 82 -6 24 -10 25 -91 25 l-85 0 -1 -67z"/>
<path d="M568 4410 c-4 -28 -3 -30 29 -30 30 0 33 -3 33 -30 0 -26 4 -30 28
-30 24 0 28 4 28 28 -1 24 3 27 29 27 30 0 30 -1 30 -55 0 -53 1 -55 30 -60
29 -5 30 -7 30 -60 l0 -55 -85 -3 c-47 -2 -89 -7 -93 -11 -17 -17 3 -50 31
-53 15 -2 28 -9 28 -15 1 -7 2 -19 3 -27 0 -8 13 -16 29 -18 21 -2 28 -9 30
-30 3 -25 0 -28 -27 -28 -20 0 -31 5 -32 15 -1 8 -2 21 -3 28 0 6 -13 13 -28
15 -28 3 -34 -7 -29 -45 1 -8 -10 -13 -29 -13 -17 0 -30 -5 -31 -12 -5 -58 -7
-136 -3 -150 3 -9 17 -18 32 -20 29 -3 27 9 31 -155 1 -17 7 -23 25 -23 18 0
25 7 30 30 4 24 11 30 31 30 14 0 26 -4 26 -10 1 -5 3 -14 4 -20 1 -5 3 -14 4
-20 0 -5 26 -10 56 -10 54 0 55 0 55 30 0 27 3 30 30 30 28 0 29 -1 32 -57 3
-55 4 -58 31 -61 24 -3 27 0 27 27 0 28 3 31 30 31 27 0 30 -3 30 -30 l0 -30
90 0 90 0 0 -30 c0 -27 -3 -30 -29 -30 -25 0 -30 -4 -33 -27 -3 -28 -3 -28
-90 -31 l-88 -3 0 30 c0 29 -1 30 -57 33 -55 3 -58 4 -61 31 -3 26 -6 27 -57
27 -51 0 -54 -1 -57 -27 -2 -22 -9 -29 -30 -31 -16 -2 -29 -9 -29 -15 -1 -7
-2 -32 -3 -57 l-1 -45 -60 0 c-57 0 -60 1 -60 25 0 20 6 26 30 30 24 4 30 10
30 30 0 25 -1 25 -92 28 l-92 3 3 -28 c3 -22 9 -29 32 -33 23 -4 29 -11 29
-30 0 -20 -6 -26 -28 -28 -21 -3 -27 -9 -27 -28 0 -14 6 -25 15 -25 8 -1 21
-2 28 -3 6 0 13 -13 15 -28 3 -22 9 -28 27 -28 18 0 24 6 27 28 3 26 6 27 61
30 31 2 57 -1 58 -5 0 -4 2 -18 5 -30 3 -20 0 -23 -26 -23 -31 0 -32 -3 -32
-65 0 -54 1 -56 30 -53 21 2 28 9 30 31 l3 27 84 0 84 0 3 58 c3 54 4 57 31
60 21 3 27 9 27 28 0 20 -5 24 -30 24 -25 0 -30 -4 -30 -25 0 -23 -8 -29 -37
-26 -14 2 -27 -34 -18 -49 4 -6 -7 -10 -27 -10 l-33 0 0 85 0 85 117 0 117 0
3 -27 c2 -22 9 -29 31 -31 21 -3 27 -9 27 -28 0 -20 5 -24 30 -24 27 0 30 -3
30 -30 l0 -29 -87 -3 c-87 -3 -88 -3 -91 -30 -3 -23 1 -27 25 -30 22 -2 29 -9
31 -30 3 -23 8 -28 32 -28 24 0 29 5 32 28 2 21 9 28 31 30 27 3 27 3 27 -57
l0 -60 -57 -3 c-55 -3 -58 -4 -61 -30 -3 -24 -8 -28 -33 -28 -29 0 -29 0 -29
60 l0 60 -85 0 -85 0 0 -60 0 -60 -30 0 c-17 0 -31 -6 -31 -12 -1 -7 -2 -20
-3 -28 0 -9 -13 -16 -31 -18 -28 -3 -31 0 -30 25 0 25 -4 28 -33 31 l-34 3 2
77 c3 103 3 102 -24 102 -18 0 -25 -7 -29 -30 l-6 -30 -86 0 -85 0 0 -30 c0
-25 4 -30 25 -30 14 0 25 -3 26 -7 0 -5 2 -18 5 -30 4 -22 1 -23 -61 -23 -62
0 -65 -1 -61 -22 3 -13 5 -26 5 -30 1 -4 13 -8 29 -10 21 -2 27 -8 27 -28 0
-20 -6 -26 -28 -28 -22 -3 -27 -8 -27 -32 0 -24 5 -29 28 -32 28 -3 27 -1 31
-90 1 -21 6 -27 28 -30 22 -2 28 -9 30 -30 2 -25 -2 -28 -28 -28 -28 0 -33 -7
-30 -42 2 -14 -5 -18 -27 -18 -29 0 -42 -14 -42 -46 0 -10 15 -14 60 -14 l60
0 0 30 0 30 65 0 65 0 0 -30 c0 -27 -3 -30 -30 -30 -16 0 -30 -3 -31 -7 -6
-57 -10 -53 53 -53 58 0 61 2 61 43 0 12 8 17 27 17 21 0 29 6 32 25 6 30 2
35 -31 35 -25 0 -26 2 -26 60 l0 61 29 -3 c28 -3 29 -5 30 -58 1 -53 2 -55 31
-60 24 -4 30 -11 32 -33 2 -24 -2 -27 -27 -27 -27 0 -40 -15 -40 -46 0 -9 11
-14 35 -14 31 0 34 2 32 28 -2 26 0 27 55 30 38 2 58 8 62 17 10 26 -5 45 -35
45 -26 0 -29 4 -29 30 0 26 -4 30 -27 30 l-28 0 0 88 -1 87 31 5 c29 5 30 7
31 60 1 52 2 55 27 58 17 2 27 10 28 20 1 9 2 35 3 57 1 36 4 40 29 43 l27 3
0 -90 0 -91 30 0 c27 0 30 -3 30 -30 0 -28 -1 -29 -57 -32 -56 -3 -58 -4 -58
-30 1 -24 -3 -28 -26 -28 -33 0 -35 -5 -30 -71 3 -48 4 -50 29 -47 25 3 27 6
27 58 0 53 1 55 28 58 27 3 27 3 27 -57 0 -60 0 -61 -28 -61 -23 0 -27 -4 -28
-30 l-2 -30 119 0 119 0 0 30 c0 27 3 30 30 30 l30 0 0 -60 0 -60 -60 0 -60 0
0 -30 c0 -27 -3 -30 -30 -30 -27 0 -30 -3 -30 -30 0 -27 -3 -30 -30 -30 -27 0
-30 -3 -30 -30 0 -26 -3 -30 -29 -30 -28 0 -29 0 -27 58 1 55 0 57 -26 60 -19
2 -28 -2 -33 -17 -3 -12 -3 -25 0 -31 4 -6 -26 -10 -84 -10 -66 0 -91 -4 -92
-12 -1 -7 -2 -20 -3 -28 0 -8 -13 -16 -28 -18 -48 -6 -47 -62 1 -62 l26 0 1
-87 2 -88 30 -3 c30 -3 30 -4 29 -60 l0 -57 92 -3 92 -3 -3 -27 c-2 -23 1 -27
22 -29 14 -1 40 0 58 3 32 5 32 6 32 59 l0 55 60 0 60 0 0 30 c0 27 3 30 29
30 25 0 30 -4 33 -27 3 -27 6 -28 61 -31 57 -3 58 -4 55 -30 -2 -21 -9 -28
-30 -30 -24 -3 -28 -8 -28 -33 l0 -29 -90 0 c-89 0 -90 0 -90 -25 0 -22 -4
-24 -57 -27 -55 -3 -58 -4 -61 -30 -3 -24 -8 -28 -33 -28 -26 0 -29 3 -29 30
0 25 -4 30 -24 30 -29 0 -32 -13 -28 -107 l4 -73 54 0 c53 0 54 0 54 -30 0
-30 0 -30 -59 -30 -41 0 -59 4 -58 12 1 39 -4 48 -28 48 -22 0 -24 4 -27 58
-3 56 -3 57 -36 60 -18 2 -32 9 -31 15 5 41 -1 46 -58 49 -51 3 -58 6 -61 26
-3 16 -10 22 -28 22 -13 0 -24 6 -25 13 0 6 -2 20 -4 30 -3 15 5 17 56 17 49
0 59 3 60 18 7 94 5 102 -26 102 -18 0 -24 -6 -27 -27 -2 -22 -9 -29 -30 -31
-16 -2 -29 -9 -29 -15 -1 -7 -2 -19 -3 -27 0 -8 -13 -16 -28 -18 -21 -3 -27
-9 -30 -30 -2 -23 -8 -27 -33 -27 -25 0 -30 4 -30 25 0 20 -7 26 -30 30 -29 5
-30 7 -30 60 0 53 -1 55 -28 58 -24 3 -27 7 -28 45 0 23 -2 50 -4 60 -2 13 4
17 26 17 26 0 29 3 29 31 0 27 -3 30 -27 27 -22 -2 -28 -8 -28 -28 0 -21 -5
-26 -33 -28 l-33 -3 7 46 c3 26 3 67 -1 91 -6 41 -9 44 -36 44 l-30 0 3 -147
3 -148 30 -5 c28 -5 30 -9 32 -50 1 -25 2 -50 2 -57 1 -6 13 -13 29 -15 21 -2
27 -8 27 -28 0 -21 -5 -25 -30 -25 -25 0 -30 4 -30 25 0 21 -5 26 -32 28 l-33
3 0 -146 0 -146 32 3 c28 2 33 7 33 28 0 20 6 26 27 28 21 3 27 9 30 30 2 23
8 27 33 27 25 0 31 -4 33 -27 3 -21 9 -27 30 -30 21 -2 27 -8 27 -28 0 -23 -4
-25 -57 -28 -53 -3 -57 -5 -60 -30 -3 -25 -7 -27 -63 -32 -56 -5 -60 -6 -62
-32 l-2 -27 92 -3 92 -3 1 -28 1 -27 -93 0 -94 0 0 -60 0 -60 30 0 c27 0 30 3
30 30 l0 29 92 3 c92 3 93 3 93 28 0 25 2 25 88 28 55 2 87 -1 88 -8 1 -5 3
-14 4 -20 1 -5 3 -14 4 -19 0 -5 13 -11 29 -13 15 -2 28 -9 28 -15 1 -7 2 -20
3 -28 1 -10 11 -15 29 -15 25 0 29 -4 30 -30 1 -27 -3 -30 -29 -30 -16 0 -30
-6 -31 -12 0 -7 -1 -20 -2 -28 -1 -9 -13 -16 -28 -18 -28 -3 -32 -10 -29 -44
2 -14 -5 -18 -32 -18 -34 0 -37 -5 -28 -52 0 -4 27 -8 59 -10 36 -2 57 -7 58
-15 1 -7 2 -20 3 -28 1 -20 47 -20 55 0 10 26 -5 45 -35 45 l-30 0 2 59 c2 59
2 60 33 63 19 2 31 9 32 18 1 8 2 21 2 28 1 6 16 12 33 12 24 0 30 4 25 15 -9
25 5 45 33 45 l27 0 2 -120 3 -120 -29 0 c-24 0 -31 -5 -34 -25 -6 -30 -2 -35
34 -35 24 0 28 -4 28 -30 0 -26 -3 -30 -29 -30 -24 0 -30 5 -35 30 -4 24 -11
30 -31 30 -21 0 -25 -5 -25 -30 0 -27 3 -30 30 -30 l31 0 -3 -90 -3 -90 -30 0
-31 0 1 88 0 87 -60 0 c-59 0 -60 0 -58 -27 2 -25 -2 -28 -26 -28 -19 0 -30
-6 -33 -17 -9 -35 2 -43 57 -43 61 0 66 -7 61 -77 -3 -43 -3 -43 31 -43 32 0
34 -2 31 -27 -2 -22 -9 -29 -29 -31 -49 -6 -46 -62 2 -62 27 0 30 -3 27 -28
-3 -27 -4 -27 -91 -32 -48 -3 -87 -8 -87 -12 0 -5 0 -17 0 -28 0 -16 8 -19 58
-22 54 -3 57 -4 60 -30 3 -22 9 -28 28 -28 14 0 25 6 25 15 1 8 2 21 3 28 1 8
20 12 61 12 l60 0 3 -82 c3 -81 3 -83 27 -83 15 0 26 6 26 15 1 8 2 21 3 28 0
6 12 12 26 12 20 0 26 6 28 27 3 23 -1 27 -25 30 -22 2 -28 8 -28 28 0 21 -5
26 -31 28 -28 3 -31 6 -30 33 1 27 4 30 31 27 25 -2 30 -7 30 -28 0 -20 5 -26
30 -30 24 -4 30 -10 30 -30 0 -20 6 -26 28 -28 24 -3 27 0 27 27 l0 31 60 0
c60 0 60 0 60 29 0 25 -4 30 -27 33 -28 3 -28 3 -31 91 l-3 87 31 0 30 0 0 60
0 60 60 0 60 0 0 30 0 30 -60 0 -60 0 0 -30 c0 -27 -3 -30 -30 -30 -27 0 -30
3 -30 30 0 27 -3 30 -30 30 -27 0 -30 3 -30 30 0 27 3 30 30 30 27 0 30 3 30
30 0 27 -3 30 -30 30 -27 0 -30 -3 -30 -30 0 -27 -3 -30 -30 -30 -27 0 -30 3
-30 30 0 27 -3 30 -30 30 l-29 0 1 90 2 90 28 0 c24 0 28 4 28 30 0 26 -4 30
-28 30 -25 0 -29 4 -30 30 l-1 30 60 0 59 0 0 -90 0 -90 30 0 c27 0 30 -3 30
-30 0 -27 3 -30 30 -30 l30 0 0 -60 0 -60 30 0 30 0 0 60 0 60 -30 0 -30 0 0
60 0 60 -30 0 c-27 0 -30 3 -30 30 0 27 3 30 30 30 27 0 30 3 30 30 l0 30 -60
0 -60 0 0 60 0 60 -30 0 c-27 0 -30 -3 -30 -30 0 -26 -4 -30 -28 -30 -27 0
-27 1 -27 57 0 56 1 58 28 61 23 3 27 8 27 33 0 26 3 29 30 29 27 0 30 -3 30
-30 0 -27 3 -30 30 -30 27 0 30 3 30 30 0 27 3 30 30 30 l30 0 0 60 0 60 -31
0 c-27 0 -30 3 -27 28 2 21 9 28 30 30 21 3 27 9 30 30 2 21 8 27 28 27 23 0
25 -4 28 -57 3 -53 5 -57 30 -60 21 -2 28 -9 30 -30 3 -23 -1 -27 -25 -30 -22
-2 -29 -9 -31 -31 -3 -24 0 -27 27 -27 28 0 31 -3 31 -30 0 -27 -3 -30 -30
-30 -27 0 -30 -3 -30 -30 0 -27 3 -30 30 -30 27 0 30 -3 30 -30 0 -27 3 -30
30 -30 27 0 30 3 30 30 0 27 3 30 30 30 27 0 30 -3 30 -30 0 -27 3 -30 30 -30
27 0 30 -3 30 -30 l0 -30 -60 0 -60 0 0 -30 0 -30 60 0 60 0 0 -30 c0 -27 -3
-30 -30 -30 -27 0 -30 -3 -30 -30 l0 -30 -60 0 -60 0 0 30 c0 27 -3 30 -30 30
-27 0 -30 -3 -30 -30 0 -27 3 -30 30 -30 27 0 30 -3 30 -30 l0 -30 60 0 60 0
0 -30 c0 -27 -3 -30 -30 -30 -27 0 -30 -3 -30 -30 0 -27 3 -30 30 -30 27 0 30
3 30 30 0 27 3 30 30 30 l30 0 0 -60 0 -60 -30 0 c-27 0 -30 -3 -30 -30 0 -27
-3 -30 -30 -30 l-30 0 0 -60 0 -60 -30 0 c-27 0 -30 -3 -30 -30 0 -27 -3 -30
-30 -30 -27 0 -30 -3 -30 -30 l0 -30 60 0 60 0 0 60 0 60 60 0 60 0 0 -60 0
-60 91 0 90 0 -3 -28 c-2 -21 -9 -28 -30 -30 -21 -3 -27 -9 -30 -30 -2 -21 -9
-28 -30 -30 -25 -3 -28 0 -28 27 l0 31 -121 0 -120 0 3 -28 c3 -27 3 -27 91
-30 l88 -3 -3 -57 -3 -57 -45 -2 c-25 -1 -51 -2 -57 -2 -7 -1 -13 -12 -13 -26
0 -22 4 -24 58 -27 54 -3 57 -4 60 -30 3 -27 5 -28 63 -28 60 0 60 0 57 28 -2
21 -9 28 -30 30 -27 3 -28 6 -28 57 0 60 3 62 77 56 41 -3 44 -5 41 -30 -2
-20 -9 -27 -30 -29 -22 -3 -28 -9 -28 -27 0 -18 6 -24 28 -27 26 -3 27 -6 29
-60 l1 -58 -59 0 c-59 0 -59 0 -59 -30 l0 -30 -90 0 -90 0 0 -30 c0 -27 -3
-30 -30 -30 -27 0 -30 -3 -30 -30 l0 -30 60 0 60 0 0 30 c0 27 3 30 30 30 27
0 30 -3 30 -30 0 -27 3 -30 30 -30 27 0 30 3 30 30 l0 29 88 3 c87 3 87 3 90
30 3 25 0 28 -26 28 -24 0 -31 5 -34 25 -6 31 -2 35 34 35 22 0 29 -4 27 -18
-3 -34 1 -41 29 -44 15 -2 27 -9 28 -18 2 -36 5 -40 27 -40 31 0 35 5 29 35
-3 20 -10 25 -32 25 -25 0 -29 4 -28 30 1 26 5 30 28 30 23 0 29 -5 34 -30 4
-24 11 -30 31 -30 21 0 25 5 25 30 l0 30 60 0 60 0 0 30 c0 26 -4 30 -28 30
-25 0 -29 4 -27 28 1 22 6 28 28 30 21 3 27 9 27 28 0 19 5 24 25 24 14 0 28
0 32 0 5 0 8 -10 8 -22 0 -17 -7 -24 -26 -26 -26 -3 -45 -34 -33 -54 9 -14 54
-9 55 7 1 8 2 21 3 27 0 7 15 15 31 18 17 3 31 11 31 18 1 6 2 18 3 26 1 10 9
13 26 10 24 -4 25 -3 25 55 0 58 -1 60 -27 63 -22 2 -28 8 -28 28 0 21 6 26
33 28 31 3 33 1 30 -25 l-3 -28 90 0 c89 0 89 0 89 25 1 23 -3 25 -59 30 -44
4 -60 9 -61 20 -1 8 -2 20 -3 27 0 6 -13 13 -28 15 -16 2 -29 9 -29 16 -1 6
-2 19 -3 27 0 9 -11 15 -26 15 -14 0 -25 3 -26 8 0 4 -2 17 -5 29 -3 18 1 22
29 25 l32 3 0 58 0 58 -30 -3 c-26 -3 -30 -6 -27 -30 3 -26 1 -28 -33 -28
l-36 0 3 57 c3 55 4 58 33 63 24 4 30 10 30 30 0 20 7 26 30 30 29 5 31 10 26
50 0 6 -25 10 -55 10 -63 0 -72 -13 -61 -80 7 -39 6 -40 -24 -40 -18 0 -32 -5
-32 -12 -1 -7 -2 -20 -3 -28 -1 -11 -16 -16 -58 -18 -57 -3 -58 -4 -58 -32 0
-26 4 -30 29 -30 26 0 30 -3 28 -27 l-2 -28 -90 0 -90 0 -3 87 -3 88 34 0 c22
0 35 -5 34 -12 -1 -39 4 -48 28 -48 24 0 28 6 28 43 0 12 8 17 27 17 18 0 29
6 32 18 11 39 2 42 -146 42 -79 0 -145 2 -148 5 -3 3 -3 17 0 30 4 23 9 25 58
25 55 0 60 5 55 48 -1 8 16 12 59 12 61 0 65 3 61 42 -2 14 5 18 32 18 32 0
33 2 29 30 -4 25 -9 30 -33 30 -27 0 -29 3 -26 27 3 22 10 29 30 31 17 2 27
10 28 20 6 93 5 97 -26 102 -24 4 -31 11 -33 33 -3 24 0 27 27 27 18 0 31 5
32 13 1 6 2 32 3 57 1 41 3 45 29 48 17 2 27 -2 28 -10 1 -7 2 -20 3 -28 0 -8
14 -17 31 -20 24 -4 30 -11 31 -30 3 -91 2 -90 33 -90 24 0 28 -4 27 -27 -1
-23 4 -29 27 -31 19 -2 27 1 28 12 1 9 2 22 3 28 0 7 15 15 31 18 24 4 30 10
30 30 0 19 6 26 25 29 30 4 39 16 33 42 -4 13 -14 19 -35 19 -27 0 -29 -2 -24
-30 4 -28 2 -30 -25 -30 -28 0 -32 -5 -32 -43 0 -14 -6 -17 -31 -15 -26 2 -31
7 -31 28 0 20 6 26 30 30 24 4 30 10 30 30 0 20 6 26 30 30 23 4 30 10 30 30
0 21 5 25 30 25 20 0 30 -5 31 -15 2 -36 5 -40 32 -40 26 0 27 1 27 57 l0 58
88 3 87 3 0 -61 0 -60 -30 0 c-27 0 -30 3 -30 31 0 27 -3 30 -27 27 -27 -3
-28 -5 -28 -58 0 -53 -1 -55 -28 -58 -27 -3 -31 -10 -28 -44 2 -14 -9 -18 -61
-20 l-63 -3 0 -57 1 -58 -34 0 -34 0 4 -60 3 -61 -30 3 c-25 2 -30 8 -30 28 0
20 -6 26 -27 28 -25 3 -28 0 -29 -30 -1 -18 -2 -44 -3 -58 -1 -19 -8 -26 -31
-30 -23 -4 -29 -10 -29 -30 0 -21 4 -25 29 -25 26 0 30 4 29 28 l0 27 93 0 94
0 -5 -42 c-2 -24 -5 -51 -5 -60 -1 -13 -9 -18 -30 -18 -28 0 -28 -1 -27 -58 1
-54 2 -57 29 -60 15 -2 28 -6 28 -10 4 -23 5 -89 1 -99 -2 -7 -15 -13 -28 -13
-13 0 -25 -4 -25 -10 -6 -46 -8 -45 86 -50 89 -5 91 -6 91 -30 -1 -20 5 -26
27 -28 24 -3 27 0 27 27 0 28 3 31 30 31 l30 0 0 -60 0 -60 -31 0 c-27 0 -30
-3 -27 -27 2 -22 9 -29 31 -31 22 -3 27 -8 27 -32 0 -24 -5 -29 -27 -32 -22
-2 -29 -9 -31 -30 -3 -22 -8 -26 -30 -25 -15 2 -28 9 -28 17 -1 8 -2 21 -3 28
0 6 -12 12 -25 12 -26 0 -38 -34 -29 -82 5 -24 2 -27 -28 -30 -30 -3 -34 -7
-34 -30 1 -27 -1 -28 -56 -28 -47 0 -57 -3 -62 -19 -6 -26 3 -38 32 -42 23 -4
25 -9 29 -62 l4 -58 -34 3 c-28 2 -33 7 -33 28 0 34 -50 42 -60 11 -3 -12 -3
-26 0 -32 5 -7 -4 -9 -26 -7 -29 2 -35 7 -37 30 -3 22 -9 28 -26 28 -27 0 -40
-39 -30 -90 6 -29 9 -30 60 -30 50 0 53 1 56 27 2 23 8 29 36 31 30 3 32 1 32
-27 0 -26 4 -31 25 -31 15 0 26 6 26 15 1 8 2 21 3 27 0 7 14 15 31 18 29 5
30 7 30 60 0 54 0 55 30 55 30 0 30 0 31 -57 1 -57 0 -58 -28 -58 -15 0 -29
-4 -29 -10 -5 -40 -3 -45 23 -48 23 -3 27 1 30 25 3 24 8 28 33 28 25 0 30 -4
33 -27 3 -22 9 -28 27 -28 23 0 24 3 27 88 3 86 3 87 30 90 23 3 27 -1 30 -25
2 -22 9 -29 31 -31 26 -3 27 -5 27 -63 0 -59 0 -59 30 -59 27 0 30 3 30 30 0
27 3 30 30 30 27 0 30 3 30 30 l0 30 -60 0 -60 0 0 30 c0 27 -3 30 -30 30 -27
0 -30 3 -30 30 0 27 3 30 30 30 30 0 30 1 30 55 0 54 0 55 30 55 l30 0 0 -85
0 -85 60 0 60 0 0 -60 0 -60 60 0 60 0 0 -30 0 -30 85 0 85 0 0 30 c0 27 3 30
30 30 l29 0 3 88 c3 87 3 87 31 90 l27 3 0 -90 0 -91 30 0 c27 0 30 -3 30 -30
0 -27 3 -30 30 -30 l30 0 0 90 0 90 60 0 60 0 0 30 c0 27 3 30 30 30 27 0 30
3 30 30 0 27 -3 30 -30 30 -25 0 -30 4 -30 25 0 29 25 38 83 32 35 -4 37 -3
37 24 0 23 -5 28 -27 31 -22 2 -29 9 -31 31 -3 24 0 27 27 27 25 0 30 -4 33
-27 2 -22 8 -28 28 -28 20 0 26 -7 30 -30 3 -17 12 -30 20 -31 36 -2 40 -5 40
-29 0 -24 3 -25 60 -25 57 0 60 1 60 25 0 24 12 30 48 26 8 -1 12 16 12 59 l0
60 -30 0 c-27 0 -30 -3 -30 -31 0 -27 -3 -30 -27 -27 -27 3 -28 6 -31 60 l-3
58 31 0 30 0 0 60 0 60 30 0 c27 0 30 3 30 30 0 27 -3 30 -30 30 -27 0 -30 3
-30 30 l0 30 60 0 60 0 0 -90 0 -90 30 0 30 0 0 -60 0 -60 -30 0 -30 0 0 -85
0 -85 30 0 c30 0 30 1 30 55 0 54 0 55 29 55 25 0 30 -4 33 -27 2 -22 9 -29
31 -31 26 -3 27 -6 27 -57 0 -51 -1 -54 -28 -57 -21 -2 -28 -9 -30 -30 -3 -24
-8 -28 -33 -28 -26 0 -29 3 -29 30 l0 30 -177 -2 -178 -3 -3 -27 c-3 -24 -8
-28 -33 -28 -26 0 -29 -3 -29 -30 0 -27 3 -30 30 -30 27 0 30 -3 30 -30 l0
-30 60 0 60 0 0 -30 c0 -27 3 -30 30 -30 27 0 30 3 30 30 0 27 -3 30 -30 30
l-30 0 0 60 0 60 60 0 60 0 0 -60 0 -60 30 0 c27 0 30 -3 30 -30 l0 -30 60 0
60 0 0 30 c0 27 3 30 30 30 27 0 30 -3 30 -30 0 -27 3 -30 30 -30 27 0 30 3
30 30 0 27 3 30 30 30 27 0 30 3 30 30 0 27 -3 30 -30 30 l-30 0 0 60 0 61 88
-3 87 -3 3 -57 3 -58 -31 0 -30 0 0 -60 0 -60 30 0 30 0 0 61 c0 60 0 60 28
57 28 -3 28 -1 31 -96 1 -19 6 -23 28 -20 25 3 26 6 27 61 1 55 0 57 -25 57
-20 0 -28 6 -31 25 -6 30 -2 35 28 35 17 0 23 -7 26 -27 2 -22 9 -29 31 -31
26 -3 27 -5 27 -63 l0 -59 60 0 60 0 0 30 c0 27 -3 30 -30 30 -27 0 -30 3 -30
30 0 27 3 30 30 30 27 0 30 3 30 30 0 27 -3 30 -30 30 -27 0 -30 3 -30 30 0
27 3 30 30 30 l30 0 0 235 0 236 -57 -3 c-54 -3 -58 -5 -58 -28 0 -20 6 -26
28 -28 23 -3 27 -8 27 -33 0 -26 -3 -29 -31 -29 -27 0 -30 -3 -27 -27 2 -22 9
-29 31 -31 l27 -3 0 -90 0 -89 -30 0 c-25 0 -30 -4 -30 -25 0 -21 5 -25 30
-25 27 0 30 -3 30 -29 0 -25 -4 -30 -27 -33 -22 -2 -28 -8 -28 -28 0 -20 6
-26 27 -28 24 -3 28 -8 28 -33 0 -26 -3 -29 -30 -29 -27 0 -30 3 -30 30 0 25
-4 30 -24 30 -28 0 -32 14 -31 107 0 60 -1 63 -27 69 -26 5 -28 9 -28 59 0 51
1 54 27 57 26 3 27 6 28 60 l0 58 -31 0 c-26 0 -30 -3 -30 -27 1 -23 -4 -29
-26 -31 -25 -3 -28 0 -28 27 0 28 -3 31 -30 31 -27 0 -30 3 -30 29 0 25 4 30
28 33 26 3 27 6 30 61 l3 57 -31 0 c-27 0 -30 3 -30 30 0 27 3 30 30 30 27 0
30 3 30 30 0 27 -3 30 -30 30 l-30 0 0 90 0 90 60 0 c58 0 59 0 57 28 -2 23 2
27 29 30 l30 3 -2 77 c-1 42 1 82 3 89 3 8 25 13 59 13 l54 0 0 -59 c0 -58 -1
-60 -27 -63 -27 -3 -28 -6 -31 -60 l-3 -58 61 0 60 0 0 180 0 180 -30 0 c-27
0 -30 3 -30 30 0 27 3 30 30 30 l30 0 0 90 0 91 -57 -3 c-54 -3 -58 -5 -58
-28 0 -20 6 -26 28 -28 26 -3 27 -5 27 -62 0 -57 -1 -59 -27 -62 -27 -3 -28
-6 -31 -60 l-3 -57 -55 -3 -56 -3 1 -117 0 -118 -30 0 -29 0 0 90 0 90 -30 0
-30 0 0 60 0 60 84 0 84 0 3 33 c2 17 3 44 1 60 -3 23 -8 27 -33 27 -27 0 -29
3 -29 38 0 59 10 81 36 84 14 2 24 6 24 11 0 4 0 30 0 57 l0 50 -55 0 c-52 0
-55 1 -55 25 0 21 -5 25 -30 25 -30 0 -30 -1 -30 -55 0 -54 0 -55 -30 -55 -30
0 -30 1 -30 55 0 54 0 55 -30 55 -30 0 -30 -1 -30 -55 0 -37 -4 -55 -12 -56
-7 0 -21 -2 -30 -4 -16 -3 -18 5 -18 55 l0 59 -57 3 c-55 3 -58 5 -61 30 -3
23 1 27 25 30 22 2 29 9 31 31 3 23 8 27 33 27 l29 0 0 90 0 90 60 0 60 0 0
-30 c0 -27 -3 -30 -30 -30 -27 0 -30 -3 -30 -31 0 -27 3 -30 28 -27 21 2 28 9
30 31 3 23 8 27 33 27 29 0 29 0 29 -60 l0 -60 -60 0 -60 0 0 -30 0 -31 58 3
c54 3 57 4 60 31 3 23 8 27 33 27 26 0 29 -3 29 -31 0 -27 3 -30 28 -27 26 3
27 6 28 58 l1 55 116 3 117 3 0 89 0 90 -30 0 c-27 0 -30 3 -30 30 0 27 3 30
30 30 l30 0 0 90 0 90 -30 0 c-27 0 -30 3 -30 30 0 27 3 30 30 30 l30 0 0 150
0 150 -114 0 c-113 0 -114 0 -118 25 -6 30 -2 35 29 35 19 0 23 6 24 30 1 17
1 42 2 58 1 24 -3 27 -28 27 -27 0 -30 -3 -27 -27 l3 -28 -90 0 -91 0 0 30 c0
27 3 30 30 30 27 0 30 3 30 30 l0 29 88 3 c85 3 87 3 87 28 0 20 6 26 28 28
24 3 27 0 27 -27 0 -28 3 -31 30 -31 27 0 30 -3 30 -30 0 -27 3 -30 30 -30
l30 0 0 90 0 90 -85 0 c-68 0 -85 -3 -86 -15 -1 -8 -2 -21 -3 -27 -2 -19 -61
-17 -62 2 -2 36 -5 40 -29 40 l-25 0 -2 173 -3 172 -57 3 c-57 3 -58 4 -58 32
l0 30 89 0 89 0 0 -107 c0 -60 1 -114 1 -120 1 -21 51 -16 52 5 0 9 1 35 2 57
2 36 5 40 30 43 22 3 27 8 27 32 0 24 -5 29 -27 32 -27 3 -28 5 -28 58 0 52 2
55 28 58 26 3 27 5 27 63 l0 59 -31 0 c-29 0 -30 1 -28 43 3 71 1 77 -25 77
-19 0 -24 -6 -27 -32 -7 -63 0 -87 28 -90 21 -2 27 -9 28 -30 1 -24 -3 -28
-27 -28 -27 0 -32 -7 -29 -42 2 -14 -5 -18 -28 -18 l-30 0 -3 88 c-3 87 -3 87
-30 90 -25 3 -28 0 -28 -27 l0 -31 -60 0 -60 0 0 30 c0 27 3 30 30 30 27 0 30
3 30 30 0 27 -3 30 -30 30 l-30 0 0 60 0 60 -30 0 c-27 0 -30 -3 -30 -30 0
-27 -3 -30 -30 -30 l-30 0 0 60 0 60 60 0 60 0 0 30 c0 27 -3 30 -30 30 -27 0
-30 3 -30 30 l0 30 -90 0 -90 0 0 60 0 60 30 0 c27 0 30 -3 30 -30 0 -27 3
-30 30 -30 l30 0 0 60 0 60 -90 0 -90 0 0 -60 0 -60 -30 0 -30 0 0 -60 0 -60
-30 0 -30 0 0 -90 0 -90 -30 0 c-27 0 -30 3 -30 30 0 27 -3 30 -30 30 -27 0
-30 3 -30 30 0 27 3 30 30 30 27 0 30 3 30 30 0 27 -3 30 -30 30 -27 0 -30 3
-30 30 0 27 -3 30 -30 30 -27 0 -30 3 -30 30 l0 30 60 0 60 0 0 60 0 60 -60 0
-60 0 0 -60 0 -60 -30 0 c-27 0 -30 -3 -30 -30 0 -27 -3 -30 -30 -30 -27 0
-30 -3 -30 -30 0 -27 -3 -30 -30 -30 -27 0 -30 3 -30 30 l0 30 -60 0 -60 0 0
30 c0 27 3 30 30 30 27 0 30 3 30 30 l0 30 -60 0 -60 0 0 30 c0 27 -3 30 -30
30 -27 0 -30 -3 -30 -30 0 -27 -3 -30 -30 -30 -27 0 -30 3 -30 30 0 30 -1 30
-55 30 -54 0 -56 -1 -62 -30 l-5 -30 -84 0 -84 0 0 30 c0 27 -3 30 -30 30 -27
0 -30 -3 -30 -30 0 -27 -3 -30 -30 -30 -27 0 -30 3 -30 30 0 27 -3 30 -30 30
-27 0 -30 -3 -30 -30 0 -27 -3 -30 -30 -30 -27 0 -30 3 -30 30 l0 30 -85 0
c-78 0 -85 -2 -85 -20 0 -11 -1 -23 -2 -27 -2 -4 11 -10 27 -13 24 -4 31 -11
33 -33 3 -24 7 -28 30 -25 21 2 27 8 27 28 0 20 6 26 28 28 27 3 27 3 27 -57
0 -58 -1 -61 -24 -61 -23 0 -36 -16 -36 -46 0 -9 11 -14 30 -14 27 0 30 3 30
30 0 27 3 30 30 30 l30 0 0 -60 0 -60 -55 0 c-37 0 -56 -4 -57 -12 0 -7 -1
-20 -2 -28 -1 -8 -14 -17 -31 -20 -25 -5 -30 -10 -29 -33 1 -24 -2 -27 -30
-27 -31 0 -32 1 -31 48 1 62 -3 72 -30 72 -29 0 -38 13 -30 40 5 17 15 20 60
20 48 0 53 2 57 25 6 31 2 35 -34 35 -23 0 -28 4 -24 18 8 24 -4 39 -34 43
-19 3 -25 10 -25 29 0 21 -6 26 -34 28 l-34 3 6 -61 7 -61 -33 3 c-20 2 -33 9
-33 18 -1 8 -2 21 -3 28 0 6 -12 12 -26 12 -21 0 -25 -5 -27 -30 -1 -16 -2
-43 -3 -60 l-2 -30 57 0 c56 0 58 -1 63 -30 6 -25 11 -30 36 -30 l30 0 -3 -57
c-3 -54 -5 -58 -29 -61 -16 -2 -29 -11 -33 -24 -7 -24 3 -35 36 -40 23 -3 25
-7 25 -60 l0 -58 -31 0 c-19 0 -32 5 -31 13 1 37 -4 47 -27 47 -26 0 -35 -25
-31 -86 2 -33 0 -34 -33 -34 -26 0 -33 3 -28 15 12 33 -4 45 -65 45 -59 0 -59
0 -59 30 0 27 3 30 30 30 27 0 30 3 30 30 0 27 3 30 30 30 32 0 31 -1 34 90 1
20 7 26 32 28 27 3 30 0 30 -25 -1 -23 4 -29 25 -31 19 -2 28 2 31 16 7 27 -2
39 -32 43 -19 3 -25 10 -25 29 0 21 -6 26 -32 28 -28 3 -32 7 -30 30 2 24 -2
27 -30 30 -32 3 -33 2 -27 -27 6 -30 5 -31 -30 -31 -24 0 -36 5 -36 14 0 29
13 46 34 46 30 0 34 6 28 35 -4 23 -9 25 -58 25 -53 0 -54 0 -54 -30 l0 -30
-149 0 -150 0 -3 28 c-2 21 -9 28 -30 30 -24 3 -28 8 -28 33 0 29 0 29 60 29
l60 0 0 -30 0 -30 85 0 c81 0 85 1 86 23 1 12 1 25 0 30 0 4 14 7 32 7 36 0
34 -5 29 93 l-2 27 -85 0 -85 0 0 -30 c0 -28 1 -29 58 -32 53 -3 57 -5 57 -28
0 -25 -2 -25 -87 -28 l-87 -3 -3 28 c-2 22 -9 29 -30 31 -24 3 -28 8 -28 33 0
26 -3 29 -30 29 -27 0 -30 -3 -30 -30 0 -27 -3 -30 -30 -30 -27 0 -30 3 -30
30 l0 30 -210 0 -210 0 0 -120 0 -120 60 0 60 0 0 60 0 60 30 0 c27 0 30 -3
30 -30 l0 -30 60 0 60 0 0 -60 0 -60 -90 0 -90 0 0 -60 0 -60 30 0 c27 0 30 3
30 30 0 27 3 30 30 30 27 0 30 -3 30 -30 0 -27 3 -30 30 -30 27 0 30 3 30 30
0 27 3 30 30 30 27 0 30 -3 30 -30 0 -27 3 -30 30 -30 27 0 30 -3 30 -30 0
-27 3 -30 30 -30 27 0 30 3 30 30 0 27 3 30 30 30 27 0 30 3 30 31 0 27 3 30
28 27 27 -3 27 -3 30 -90 l3 -88 -61 0 -60 0 0 -60 0 -60 60 0 60 0 0 60 c0
57 1 60 25 60 24 0 24 -2 27 -87 3 -87 3 -88 30 -91 l27 -3 3 88 3 88 60 0
c57 0 60 -1 60 -25 0 -20 -6 -26 -30 -30 -29 -5 -30 -6 -30 -62 0 -57 1 -58
28 -58 17 0 27 6 28 15 1 8 2 21 3 28 1 8 22 13 59 15 49 3 57 0 58 -15 1 -10
2 -37 3 -60 l2 -43 -58 0 c-59 0 -66 -7 -59 -52 0 -5 -12 -8 -28 -8 -35 0 -42
-8 -34 -39 4 -17 12 -21 32 -19 20 2 26 8 26 28 0 20 6 26 28 28 17 2 27 -2
28 -10 1 -7 2 -20 3 -28 1 -19 56 -27 57 -8 0 7 1 33 2 58 2 43 3 45 32 45 26
0 30 -3 27 -25 -2 -14 0 -39 3 -57 4 -25 11 -32 33 -35 26 -3 27 -6 30 -61 l3
-58 -33 3 c-31 3 -33 5 -34 43 -3 78 -2 77 -31 73 -16 -2 -29 -10 -29 -18 -1
-8 -2 -21 -3 -28 -1 -8 -11 -12 -28 -10 -23 2 -28 8 -27 31 1 23 -3 27 -27 27
-29 0 -39 -13 -31 -42 3 -12 14 -18 34 -18 17 0 28 -5 27 -12 -5 -37 2 -48 29
-48 27 0 27 -1 24 -55 -3 -41 0 -55 10 -56 7 0 61 0 120 1 l106 1 7 -31 c7
-31 7 -31 63 -28 l57 3 0 50 c0 47 2 50 28 53 23 3 27 0 27 -22 0 -22 4 -26
30 -26 25 0 30 4 30 25 0 21 5 25 30 25 l30 0 0 -85 0 -85 -30 0 c-27 0 -30 3
-30 31 0 27 -3 30 -27 27 -22 -2 -29 -9 -31 -30 -3 -22 -9 -28 -26 -28 -21 0
-24 -6 -30 -50 -4 -28 -4 -55 -1 -60 10 -16 55 -12 56 5 1 8 2 21 3 28 1 8 22
13 59 15 l57 3 0 -61 0 -60 -30 0 c-27 0 -30 3 -30 30 0 27 -3 30 -30 30 -27
0 -30 -3 -30 -30 0 -25 -4 -30 -25 -30 -24 0 -29 -8 -26 -42 2 -14 -9 -18 -61
-20 -60 -3 -63 -4 -63 -28 0 -20 6 -26 29 -30 22 -4 29 -11 32 -32 l3 -27 -92
-3 -91 -3 -2 -55 c-2 -93 5 -120 32 -120 21 0 23 5 26 58 3 56 3 57 33 57 19
0 30 -5 31 -15 1 -8 2 -21 3 -28 1 -18 115 -12 117 6 1 6 2 19 3 27 1 9 11 15
26 15 21 0 25 -5 25 -30 0 -27 3 -30 30 -30 27 0 30 -3 30 -30 0 -27 3 -30 30
-30 l30 0 0 -60 0 -60 -60 0 c-60 0 -60 0 -60 29 0 25 -4 30 -27 33 -16 2 -28
9 -29 18 -2 38 -5 41 -31 38 l-28 -3 2 -80 c1 -44 2 -83 2 -87 1 -5 66 -8 146
-8 l145 0 0 -30 c0 -27 -3 -30 -30 -30 -27 0 -30 -3 -30 -30 l0 -30 -60 0
c-60 0 -60 0 -60 30 l0 29 -87 3 c-97 3 -90 -3 -92 81 -1 34 -3 37 -30 37 -17
0 -29 5 -28 13 2 49 7 48 -150 45 l-148 -3 0 -85 c-1 -84 -1 -85 -27 -88 -48
-6 -44 -62 3 -62 23 0 30 -4 28 -17 -3 -36 2 -43 32 -43 27 0 30 -3 27 -27 -3
-24 -8 -28 -33 -28 -17 0 -31 6 -31 13 -1 6 -2 18 -3 26 0 8 -13 16 -28 18
-22 2 -29 9 -31 30 -3 24 -8 28 -34 28 -23 0 -29 4 -24 15 9 25 -4 45 -30 45
-17 0 -24 -6 -24 -20 0 -11 -1 -23 -2 -27 -1 -5 11 -10 28 -13 23 -4 29 -11
29 -30 0 -20 6 -26 30 -30 25 -4 31 -10 30 -30 0 -20 -6 -26 -26 -28 -27 -3
-43 -30 -30 -50 4 -6 31 -12 61 -14 l55 -3 0 -85 0 -85 -30 -5 c-23 -4 -30
-10 -30 -30 0 -24 -3 -25 -60 -25 -46 0 -60 3 -61 15 -2 36 -5 40 -29 40 -24
0 -25 -3 -25 -54 0 -56 -8 -67 -42 -58 -15 4 -18 17 -18 88 l0 84 -30 0 c-28
0 -29 -1 -32 -57 -3 -54 -5 -58 -28 -58 -20 0 -26 6 -28 28 -3 23 -8 27 -33
27 -29 0 -29 0 -29 60 l0 60 30 0 c27 0 30 -3 30 -31 0 -27 3 -30 28 -27 21 2
28 9 30 30 3 25 7 27 60 30 53 3 57 5 57 28 0 20 6 26 28 28 26 3 27 5 28 73
1 38 2 77 3 87 1 14 -9 18 -56 20 l-58 3 0 -61 0 -60 -30 0 -30 0 0 90 0 90
-30 0 -30 0 0 -90 0 -90 -30 0 c-27 0 -30 -3 -30 -30 0 -27 -3 -30 -30 -30
-27 0 -30 -3 -30 -30 0 -27 -3 -30 -30 -30 l-30 0 0 60 0 60 30 0 30 0 0 90 0
90 -30 0 -30 0 0 391 0 390 28 -3 c27 -3 27 -3 30 -90 l3 -88 29 0 c27 0 30 3
30 30 0 27 3 30 30 30 27 0 30 3 30 31 0 27 3 30 28 27 27 -3 27 -3 30 -90 l3
-88 -31 0 -30 0 0 -90 0 -90 -30 0 c-27 0 -30 -3 -30 -30 0 -27 -3 -30 -30
-30 l-30 0 0 -60 0 -60 30 0 30 0 0 -60 0 -60 30 0 30 0 0 60 0 60 -30 0 c-27
0 -30 3 -30 30 l0 30 60 0 60 0 0 -90 0 -90 30 0 30 0 0 91 0 90 28 -3 c21 -2
28 -9 30 -30 3 -23 8 -28 30 -28 27 0 27 1 24 60 l-4 60 35 0 c33 0 36 -2 34
-27 -2 -24 2 -29 26 -31 17 -2 27 2 28 10 1 7 2 20 3 28 1 11 16 16 58 18 49
3 57 0 63 -17 3 -12 3 -25 0 -31 -4 -6 16 -10 54 -10 67 0 62 -6 65 80 1 30
-3 36 -23 38 -27 4 -43 -15 -35 -40 4 -15 -1 -18 -28 -18 l-34 0 0 60 c0 59 1
60 27 60 15 0 29 7 33 15 10 26 -5 45 -35 45 -28 0 -29 0 -26 58 2 54 3 57 30
60 25 3 33 -5 28 -32 -1 -5 1 -26 4 -47 6 -32 11 -38 33 -41 21 -2 27 -8 27
-28 0 -20 6 -26 28 -28 30 -4 28 -10 31 108 l1 65 -32 3 c-28 3 -32 7 -29 25
3 12 5 26 5 30 1 13 56 3 57 -10 1 -7 2 -20 3 -28 1 -12 21 -15 120 -15 l120
0 -1 30 c-1 27 -4 30 -35 30 -30 0 -33 3 -33 29 0 25 -4 30 -27 33 -22 2 -29
9 -31 31 -3 22 -8 27 -31 27 -20 0 -28 5 -28 18 0 36 -4 42 -28 42 -15 0 -25
-6 -26 -15 -1 -8 -2 -21 -3 -27 0 -7 -13 -14 -28 -16 -16 -2 -29 -10 -29 -18
-1 -8 -2 -20 -3 -26 0 -7 -16 -14 -34 -16 -31 -3 -33 -2 -30 25 2 22 9 29 32
33 17 3 29 8 28 13 -1 4 -2 16 -2 27 0 16 -7 20 -30 20 -19 0 -30 5 -29 13 4
33 -2 45 -26 45 -21 0 -25 -5 -25 -29 0 -25 -4 -29 -29 -29 -23 0 -30 -5 -33
-25 -6 -30 -2 -35 34 -35 24 0 28 -4 28 -29 0 -25 4 -30 28 -33 22 -2 27 -8
28 -30 1 -27 0 -28 -57 -28 -40 0 -59 -4 -60 -12 -1 -7 -2 -20 -3 -28 -1 -11
-16 -16 -62 -18 l-60 -3 2 31 c2 28 0 30 -32 30 -34 0 -34 1 -34 44 0 59 8 76
34 76 30 0 34 6 28 36 -4 24 -8 26 -59 22 l-54 -3 3 30 3 30 83 3 82 3 0 54
c0 51 -1 54 -27 57 -22 2 -28 9 -30 31 -2 24 2 27 27 27 47 0 49 56 1 62 -24
3 -26 7 -29 60 -3 53 -5 57 -30 60 -23 2 -27 7 -25 31 2 24 -2 27 -28 27 -28
0 -29 -2 -29 -44 0 -77 2 -76 -126 -76 l-114 0 0 30 c0 27 3 30 30 30 27 0 30
3 30 30 0 27 -3 30 -30 30 -27 0 -30 3 -30 30 0 27 3 30 30 30 l30 0 0 60 0
60 -30 0 c-27 0 -30 3 -30 30 l0 30 -90 0 -90 0 0 -30 c0 -27 -3 -30 -30 -30
-27 0 -30 3 -30 30 l0 30 -60 0 -60 0 0 30 c0 27 3 30 30 30 27 0 30 3 30 30
0 27 -3 30 -30 30 -27 0 -30 3 -30 30 0 27 -3 30 -30 30 l-30 0 0 90 0 90 -28
0 c-27 0 -28 1 -27 58 l0 57 -117 3 -116 3 -4 -31z m472 -60 c0 -27 -3 -30
-30 -30 -27 0 -30 3 -30 30 0 27 3 30 30 30 27 0 30 -3 30 -30z m120 0 c0 -27
-3 -30 -30 -30 -27 0 -30 3 -30 30 0 27 3 30 30 30 27 0 30 -3 30 -30z m180
-30 l0 -60 -60 0 -60 0 0 30 c0 27 3 30 30 30 27 0 30 3 30 30 0 27 3 30 30
30 l30 0 0 -60z m1130 30 l0 -30 235 0 235 0 0 30 c0 27 3 30 30 30 l30 0 0
-60 0 -60 30 0 30 0 0 -120 0 -120 30 0 c27 0 30 3 30 30 0 27 3 30 30 30 27
0 30 -3 30 -30 0 -27 3 -30 30 -30 27 0 30 3 30 30 0 27 3 30 30 30 27 0 30 3
30 30 0 27 -3 30 -30 30 -27 0 -30 3 -30 30 0 27 3 30 30 30 27 0 30 3 30 30
0 27 3 30 30 30 27 0 30 -3 30 -30 0 -27 3 -30 30 -30 27 0 30 -3 30 -30 0
-27 -3 -30 -30 -30 -27 0 -30 -3 -30 -30 0 -27 3 -30 30 -30 l30 0 0 -120 0
-120 -60 0 -60 0 0 30 c0 27 -3 30 -30 30 l-30 0 0 -90 0 -90 30 0 c27 0 30
-3 30 -30 0 -27 -3 -30 -30 -30 -27 0 -30 -3 -30 -30 0 -27 -3 -30 -31 -30
-27 0 -30 -3 -27 -27 3 -27 6 -28 61 -31 56 -3 57 -4 57 -32 0 -27 3 -30 30
-30 27 0 30 3 30 30 0 27 3 30 30 30 27 0 30 3 30 30 l0 30 90 0 90 0 0 -30
c0 -27 3 -30 30 -30 l30 0 0 -60 0 -60 -151 0 -150 0 3 -27 c3 -27 6 -28 61
-31 53 -3 57 -5 57 -27 0 -23 17 -32 53 -26 4 0 7 -26 7 -59 0 -60 0 -60 30
-60 l30 0 0 85 0 85 60 0 c57 0 60 -1 60 -24 0 -19 -6 -25 -27 -28 -22 -2 -29
-9 -31 -30 -3 -25 0 -28 27 -28 l31 0 0 -90 0 -90 30 0 c27 0 30 -3 30 -30 0
-27 3 -30 30 -30 27 0 30 -3 30 -30 0 -27 -3 -30 -30 -30 -27 0 -30 3 -30 30
0 27 -3 30 -30 30 -27 0 -30 -3 -30 -30 0 -27 -3 -30 -30 -30 -27 0 -30 -3
-30 -30 0 -27 3 -30 30 -30 27 0 30 -3 30 -30 0 -27 3 -30 30 -30 27 0 30 3
30 30 l0 30 60 0 60 0 0 -30 c0 -27 -3 -30 -30 -30 -27 0 -30 -3 -30 -30 0
-27 -3 -30 -30 -30 -27 0 -30 -3 -30 -30 0 -27 -3 -30 -30 -30 -27 0 -30 -3
-30 -30 l0 -30 60 0 60 0 0 30 0 30 60 0 60 0 0 -30 c0 -27 3 -30 30 -30 27 0
30 3 30 30 l0 30 121 0 120 0 -3 -27 c-3 -27 -6 -28 -60 -31 -57 -3 -58 -4
-58 -32 0 -27 -3 -30 -30 -30 l-30 0 0 -60 0 -60 59 0 60 0 -2 57 c-2 57 -2
58 28 63 25 4 30 10 29 33 -1 23 3 27 27 27 26 0 29 4 29 30 0 25 -4 30 -25
30 -20 0 -27 6 -31 30 -5 23 -12 30 -29 30 -16 0 -24 7 -27 25 -7 33 -3 35 59
35 52 0 53 0 53 -30 0 -27 3 -30 30 -30 l30 0 0 -89 0 -90 -27 -3 c-22 -2 -29
-9 -31 -30 -3 -25 0 -28 27 -28 l31 0 0 -90 0 -90 -31 0 -30 0 2 -57 c3 -56 2
-58 -24 -61 -15 -2 -28 -8 -28 -13 -1 -5 -3 -13 -4 -19 -1 -5 -3 -14 -4 -20
-2 -14 -49 -12 -54 3 -8 24 5 47 28 47 25 0 34 15 27 43 -3 11 -14 17 -31 17
-25 0 -27 3 -23 29 3 23 10 31 30 33 21 2 27 8 27 28 -1 25 -2 25 -88 28 l-87
3 0 -31 c0 -27 3 -30 30 -30 l30 0 0 -60 0 -60 -60 0 -60 0 0 60 0 60 -30 0
c-27 0 -30 -3 -30 -30 0 -27 -3 -30 -30 -30 -27 0 -30 -3 -30 -30 0 -27 -3
-30 -30 -30 -27 0 -30 3 -30 30 0 27 3 30 30 30 l30 0 0 60 0 60 -30 0 c-27 0
-30 3 -30 30 0 27 -3 30 -30 30 -27 0 -30 3 -30 30 l0 30 60 0 60 0 0 60 0 60
-30 0 c-27 0 -30 -3 -30 -30 l0 -30 -60 0 -60 0 0 30 c0 27 -3 30 -30 30 -27
0 -30 3 -30 30 0 27 -3 30 -30 30 -27 0 -30 -3 -30 -30 0 -27 -3 -30 -30 -30
-27 0 -30 3 -30 30 l0 30 -90 0 -90 0 0 -30 0 -30 60 0 60 0 0 -60 0 -60 -30
0 c-27 0 -30 -3 -30 -30 0 -27 3 -30 30 -30 27 0 30 -3 30 -30 l0 -30 60 0 60
0 0 60 0 60 30 0 c27 0 30 -3 30 -30 0 -27 3 -30 30 -30 l30 0 0 -60 0 -60 30
0 30 0 0 -60 0 -60 -30 0 c-27 0 -30 3 -30 30 0 27 -3 30 -30 30 -27 0 -30 -3
-30 -30 0 -27 -3 -30 -30 -30 -27 0 -30 -3 -30 -30 l0 -30 60 0 60 0 0 -60 0
-60 30 0 c27 0 30 -3 30 -30 0 -27 -3 -30 -30 -30 -30 0 -30 -1 -30 -54 0 -52
1 -55 28 -58 26 -3 27 -6 30 -60 l3 -57 -88 -3 c-88 -3 -88 -3 -91 -31 -3 -27
-3 -27 57 -27 l61 0 0 -30 c0 -27 3 -30 30 -30 27 0 30 -3 30 -30 0 -27 3 -30
30 -30 27 0 30 -3 30 -30 l0 -30 90 0 90 0 0 -90 0 -90 -60 0 -60 0 0 -60 0
-60 30 0 c27 0 30 -3 30 -30 0 -27 3 -30 30 -30 27 0 30 3 30 30 0 27 3 30 30
30 27 0 30 -3 30 -30 0 -27 -3 -30 -30 -30 -27 0 -30 -3 -30 -30 0 -27 -3 -30
-30 -30 l-30 0 0 -60 0 -60 30 0 c27 0 30 -3 30 -30 0 -27 -3 -30 -30 -30 -27
0 -30 -3 -30 -30 0 -27 3 -30 30 -30 27 0 30 -3 30 -30 0 -27 -3 -30 -30 -30
-27 0 -30 -3 -30 -30 0 -27 3 -30 30 -30 l31 0 -3 -57 -3 -58 -57 -3 c-53 -3
-57 -5 -60 -30 -2 -21 -8 -27 -28 -27 -20 0 -26 6 -28 28 -3 24 0 27 27 27 28
0 31 3 31 30 l0 30 -60 0 -60 0 0 90 0 90 -30 0 c-27 0 -30 3 -30 30 0 27 3
30 30 30 l30 0 0 60 0 60 -90 0 -90 0 0 30 c0 27 -3 30 -30 30 -27 0 -30 -3
-30 -30 0 -27 -3 -30 -30 -30 -27 0 -30 -3 -30 -30 0 -27 -3 -30 -30 -30 -27
0 -30 -3 -30 -30 0 -27 -3 -30 -30 -30 -27 0 -30 -3 -30 -30 0 -27 -3 -30 -30
-30 -27 0 -30 -3 -30 -30 l0 -30 60 0 60 0 0 -30 c0 -27 3 -30 30 -30 l30 0 0
-60 0 -60 -30 0 c-27 0 -30 -3 -30 -30 0 -27 3 -30 30 -30 27 0 30 -3 30 -30
0 -27 -3 -30 -30 -30 -27 0 -30 3 -30 30 0 27 -3 30 -30 30 -27 0 -30 3 -30
30 0 28 -1 29 -57 32 l-58 3 -3 58 c-3 56 -4 57 -32 57 -27 0 -30 -3 -30 -30
0 -27 -3 -30 -31 -30 -27 0 -30 -3 -27 -27 2 -22 9 -29 31 -31 23 -3 27 -8 27
-33 0 -26 3 -29 30 -29 27 0 30 -3 30 -30 0 -27 -3 -30 -29 -30 -25 0 -30 -4
-33 -27 -2 -22 -8 -28 -28 -28 -20 0 -26 -6 -28 -27 -3 -25 0 -28 27 -28 28 0
31 -3 31 -29 0 -25 -4 -30 -27 -33 -22 -2 -29 -9 -31 -30 -3 -23 -8 -28 -32
-28 l-29 0 -3 88 c-2 69 -6 87 -18 88 -8 1 -21 2 -27 3 -7 0 -13 12 -13 26 0
21 5 25 30 25 27 0 30 3 30 29 0 25 -4 30 -27 33 -22 2 -29 9 -31 30 -3 25 -7
27 -60 30 -54 3 -57 5 -60 31 -3 23 -8 27 -33 27 -26 0 -29 -3 -29 -31 0 -27
-3 -30 -27 -27 -27 3 -28 5 -28 58 0 52 -1 55 -27 58 -23 3 -27 -1 -30 -25 -2
-22 -9 -29 -30 -31 -21 -3 -27 -9 -30 -30 -2 -21 -9 -28 -30 -30 -21 -3 -27
-9 -30 -30 -2 -21 -9 -28 -30 -30 -21 -3 -27 -9 -30 -30 -3 -26 -6 -27 -58
-27 -53 0 -55 1 -58 28 -3 27 -3 27 57 27 l61 0 0 30 c0 27 3 30 30 30 27 0
30 3 30 30 0 27 3 30 30 30 l30 0 0 60 0 60 55 0 c54 0 55 0 55 -30 0 -27 3
-30 30 -30 l30 0 0 60 0 60 -55 0 c-54 0 -55 0 -55 30 0 27 -3 30 -30 30 -27
0 -30 3 -30 30 0 27 3 30 30 30 27 0 30 -3 30 -30 0 -30 1 -30 55 -30 l55 0 0
60 0 60 -55 0 c-54 0 -55 0 -55 30 l0 30 -60 0 -60 0 0 30 c0 27 -3 30 -30 30
-27 0 -30 3 -30 30 0 27 -3 30 -30 30 -27 0 -30 -3 -30 -30 0 -27 -3 -30 -30
-30 -27 0 -30 3 -30 30 0 27 -3 30 -31 30 l-31 0 4 -60 3 -60 -31 0 c-27 0
-30 -3 -30 -30 0 -26 3 -30 28 -30 24 0 28 -4 28 -30 l0 -30 90 0 90 0 0 -30
c0 -27 -3 -30 -30 -30 -27 0 -30 -3 -30 -30 0 -27 3 -30 30 -30 27 0 30 -3 30
-30 0 -27 3 -30 30 -30 27 0 30 -3 30 -30 0 -27 -3 -30 -30 -30 -27 0 -30 -3
-30 -30 l0 -30 -60 0 -60 0 0 60 0 60 30 0 c27 0 30 3 30 30 l0 30 -60 0 -60
0 0 -31 c0 -27 -3 -30 -27 -27 -27 3 -28 6 -31 61 l-3 57 -59 0 c-60 0 -60 0
-60 29 0 26 4 30 33 33 27 3 32 7 32 31 1 24 -3 27 -30 27 -27 0 -30 4 -31 29
-1 26 2 30 29 33 26 2 32 7 32 28 0 21 -6 26 -33 28 -28 3 -32 7 -32 33 0 25
-4 29 -29 29 -24 0 -28 4 -27 28 1 26 3 27 62 30 46 2 62 0 61 -10 -1 -45 2
-48 58 -48 54 0 55 0 55 30 0 26 -4 30 -28 30 -24 0 -28 4 -30 30 -2 27 0 30
28 30 27 0 30 -3 30 -30 l0 -30 60 0 60 0 0 90 0 90 -60 0 -60 0 0 -30 0 -31
-57 3 c-54 3 -58 5 -58 28 0 23 4 25 58 28 56 3 57 4 57 32 0 27 3 30 30 30
27 0 30 3 30 30 0 27 3 30 30 30 l30 0 0 60 0 60 -30 0 -31 0 3 57 c3 55 4 58
31 61 23 3 27 8 27 33 0 27 -3 30 -27 27 -22 -2 -29 -9 -31 -30 -3 -21 -9 -27
-30 -30 -21 -2 -28 -9 -30 -30 -3 -25 -7 -27 -60 -30 -56 -3 -57 -4 -54 -31
l3 -27 -121 0 -120 0 0 -30 c0 -28 -3 -30 -35 -30 -32 0 -35 2 -35 30 0 27 -3
30 -30 30 -27 0 -30 3 -30 30 0 26 -4 30 -28 30 -25 0 -29 4 -27 27 1 27 3 28
61 28 56 0 59 -1 59 -25 0 -23 4 -25 56 -28 56 -3 56 -3 62 28 5 24 12 30 32
30 14 0 26 6 27 13 4 38 2 42 -27 47 -30 5 -30 5 -32 75 -1 39 -2 76 -2 83 -1
8 -20 12 -61 12 -33 0 -59 3 -59 7 6 35 -3 52 -28 55 -22 2 -28 8 -28 28 0 23
4 25 58 28 31 2 57 6 58 10 0 4 2 17 5 29 3 21 0 22 -59 25 -40 2 -62 7 -63
16 -1 6 -2 18 -3 26 0 8 -13 16 -28 18 -27 3 -28 5 -28 61 l-1 57 32 0 c25 0
32 4 29 18 -2 9 -4 23 -4 30 -1 6 -14 12 -30 12 -22 0 -28 4 -26 18 2 9 4 23
4 30 1 9 17 12 59 10 l57 -3 2 -57 2 -57 -32 -3 c-26 -2 -32 -7 -32 -28 0 -20
6 -26 30 -30 17 -3 31 -12 31 -20 1 -8 2 -20 3 -27 0 -6 13 -13 29 -15 21 -2
27 -8 27 -28 0 -20 6 -26 30 -30 28 -5 30 -8 27 -42 -6 -68 2 -78 63 -78 51 0
54 1 57 27 2 22 9 29 33 33 28 5 31 10 26 49 0 5 -13 11 -28 13 -27 3 -28 5
-28 58 l0 55 58 3 57 3 1 -168 c1 -92 1 -174 0 -180 -1 -10 22 -13 89 -13 l90
0 0 -54 c0 -52 1 -55 28 -58 21 -2 28 -9 30 -30 3 -23 -1 -27 -25 -30 -22 -2
-29 -9 -31 -31 -3 -27 -3 -27 57 -27 58 0 60 1 63 28 2 21 8 27 28 27 20 0 26
-6 28 -27 3 -25 0 -28 -27 -28 l-31 0 0 -90 0 -90 -60 0 -60 0 0 -60 0 -60 30
0 30 0 0 -60 0 -60 30 0 30 0 0 90 0 90 30 0 30 0 0 -90 0 -90 30 0 30 0 0 91
0 90 26 -3 c26 -3 26 -4 27 -90 l2 -88 28 0 c23 0 27 -4 27 -30 l0 -30 -85 0
-85 0 0 -30 c0 -27 -3 -30 -30 -30 -27 0 -30 -3 -30 -30 l0 -30 60 0 60 0 0
30 0 30 115 0 115 0 0 -30 c0 -27 3 -30 30 -30 l30 0 0 60 0 60 30 0 c27 0 30
3 30 30 l0 30 -60 0 -60 0 0 -30 c0 -27 -3 -30 -30 -30 l-30 0 0 120 0 120 30
0 c27 0 30 -3 30 -30 0 -27 3 -30 30 -30 27 0 30 -3 30 -30 0 -27 3 -30 30
-30 27 0 30 -3 30 -30 0 -27 3 -30 30 -30 l30 0 0 60 0 60 -30 0 c-27 0 -30 3
-30 30 0 27 3 30 30 30 27 0 30 3 30 30 l0 30 -60 0 -60 0 0 60 0 60 120 0
120 0 0 -30 c0 -27 3 -30 30 -30 l30 0 0 -60 0 -60 30 0 30 0 0 60 0 60 60 0
60 0 0 -30 c0 -27 -3 -30 -30 -30 -27 0 -30 -3 -30 -30 0 -27 3 -30 30 -30
l30 0 0 -90 0 -90 150 0 150 0 0 30 c0 27 -3 30 -30 30 -27 0 -30 3 -30 30 0
27 -3 30 -30 30 -27 0 -30 -3 -30 -30 0 -27 -3 -30 -30 -30 -27 0 -30 3 -30
30 0 27 -3 30 -30 30 l-30 0 0 150 0 150 -90 0 -90 0 0 -30 c0 -27 -3 -30 -30
-30 -27 0 -30 3 -30 30 0 27 -3 30 -30 30 -27 0 -30 3 -30 31 0 27 -3 30 -27
27 -22 -2 -29 -9 -31 -31 l-3 -27 -90 0 -90 0 3 28 c3 26 6 27 61 30 56 3 57
4 57 32 0 27 -3 30 -30 30 l-30 0 0 85 0 85 -30 0 c-27 0 -30 -3 -30 -31 0
-27 -3 -30 -27 -27 -26 3 -28 6 -31 60 -3 53 -5 57 -30 60 -21 2 -28 9 -30 31
-3 27 -3 27 57 27 l61 0 0 -30 0 -30 60 0 60 0 0 30 c0 27 3 30 30 30 27 0 30
3 30 30 0 27 -3 30 -30 30 -27 0 -30 3 -30 30 0 27 -3 30 -30 30 -27 0 -30 -3
-30 -30 0 -27 -3 -30 -30 -30 -27 0 -30 3 -30 30 0 27 -3 30 -30 30 -27 0 -30
-3 -30 -30 l0 -31 -57 3 c-55 3 -58 4 -61 31 -3 23 -8 27 -33 27 -30 0 -30 1
-29 48 3 70 2 72 -25 72 -21 0 -25 5 -25 30 0 25 4 30 25 30 14 0 26 5 26 10
5 40 3 45 -23 48 -21 3 -27 9 -30 30 -2 21 -9 28 -30 30 -28 3 -28 3 -28 -57
l0 -61 -30 0 c-27 0 -30 -3 -30 -30 0 -27 3 -30 30 -30 30 0 30 0 30 -60 l0
-59 57 -3 c54 -3 58 -5 58 -28 0 -20 -6 -26 -28 -28 l-27 -3 0 -90 c0 -88 0
-89 25 -89 24 0 29 9 28 48 -1 7 11 12 28 12 26 0 29 -4 29 -30 0 -27 -3 -30
-31 -30 -27 0 -30 -3 -27 -27 2 -22 9 -29 30 -31 21 -3 27 -9 30 -30 2 -22 8
-27 31 -27 23 1 27 -3 27 -27 0 -24 4 -28 30 -28 25 0 30 4 30 24 0 17 7 25
25 28 30 6 35 2 35 -29 0 -19 -5 -23 -30 -23 -27 0 -30 -3 -30 -30 l0 -30
-145 0 -145 0 0 84 0 85 28 3 c21 2 28 9 30 31 3 24 0 27 -27 27 -28 0 -31 3
-31 30 l0 30 -60 0 -60 0 0 -30 c0 -27 3 -30 31 -30 27 0 30 -3 27 -28 -2 -21
-9 -28 -30 -30 -25 -3 -28 0 -28 27 0 25 -4 30 -27 33 -27 3 -28 6 -31 61 -3
56 -4 57 -32 57 -26 0 -30 4 -30 29 0 25 -4 30 -27 33 -22 2 -29 9 -31 31 -3
27 -3 27 57 27 l61 0 0 -30 c0 -27 3 -30 30 -30 27 0 30 -3 30 -30 l0 -31 58
3 57 3 3 58 3 57 -61 0 -60 0 0 90 0 90 30 0 30 0 0 90 0 90 -30 0 c-27 0 -30
3 -30 30 0 27 3 30 30 30 27 0 30 3 30 30 l0 30 -60 0 -60 0 0 90 0 90 -30 0
c-27 0 -30 -3 -30 -30 0 -27 -3 -30 -30 -30 l-30 0 0 -60 0 -60 30 0 c27 0 30
-3 30 -30 0 -27 3 -30 30 -30 27 0 30 -3 30 -30 0 -27 -3 -30 -30 -30 -27 0
-30 3 -30 30 0 27 -3 30 -30 30 -27 0 -30 3 -30 30 0 27 -3 30 -30 30 -27 0
-30 3 -30 30 0 27 -3 30 -29 30 -26 0 -30 3 -28 28 2 26 5 27 59 30 53 3 56 4
60 32 4 28 2 30 -29 30 -30 0 -33 3 -33 30 0 27 3 30 29 30 25 0 30 -4 33 -27
2 -22 9 -29 31 -31 24 -3 27 0 27 27 0 28 3 31 29 31 25 0 30 4 33 28 2 21 9
28 31 30 24 3 27 0 27 -27 0 -28 3 -31 30 -31 27 0 30 -3 30 -30 0 -27 3 -30
30 -30 27 0 30 -3 30 -30 0 -27 3 -30 30 -30 l30 0 0 -90 0 -90 55 0 c54 0 55
0 55 -30 0 -27 3 -30 30 -30 27 0 30 -3 30 -30 0 -30 0 -30 -58 -30 -57 0 -58
0 -60 -30 -2 -27 0 -30 28 -30 27 0 30 -3 30 -30 0 -27 -3 -30 -29 -30 -26 0
-30 -3 -29 -30 1 -26 5 -30 30 -30 28 0 28 -1 28 -60 l0 -60 30 0 30 0 0 90 0
90 30 0 c27 0 30 3 30 30 0 27 3 30 30 30 l30 0 0 -60 0 -60 30 0 c27 0 30 3
30 30 0 27 3 30 30 30 l30 0 0 60 0 60 30 0 c27 0 30 3 30 30 l0 30 -60 0 -60
0 0 30 c0 27 -3 30 -30 30 -27 0 -30 3 -30 30 0 27 3 30 30 30 27 0 30 -3 30
-30 0 -27 3 -30 30 -30 l30 0 0 90 0 90 -30 0 c-27 0 -30 3 -30 30 0 27 -3 30
-30 30 -27 0 -30 3 -30 30 0 27 -3 30 -30 30 -27 0 -30 3 -30 30 0 27 -3 30
-30 30 -27 0 -30 -3 -30 -30 l0 -30 -85 0 -85 0 0 30 c0 25 4 30 24 30 23 0
42 32 30 52 -3 4 -43 8 -89 8 l-84 0 -3 58 -3 57 -58 3 c-57 3 -58 4 -55 30 3
26 6 27 58 27 53 0 55 -1 58 -27 3 -24 8 -28 33 -28 27 0 30 3 27 28 -2 23 -7
27 -30 25 -25 -2 -28 2 -28 28 0 26 3 29 30 29 25 0 30 -4 30 -24 0 -19 6 -25
28 -28 21 -2 28 -9 30 -30 3 -22 9 -28 26 -28 18 0 25 7 30 30 4 24 11 30 31
30 20 0 25 5 25 25 0 24 -3 25 -55 25 l-55 0 0 60 0 60 -30 0 c-27 0 -30 3
-30 30 0 27 3 30 30 30 27 0 30 -3 30 -30 l0 -30 85 0 85 0 0 29 c0 25 -4 30
-27 33 -22 2 -28 8 -28 28 0 20 6 26 28 28 24 3 27 0 27 -27 l0 -31 60 0 60 0
0 -30 c0 -27 3 -30 30 -30 l30 0 0 60 0 60 60 0 60 0 0 30 0 30 -60 0 -60 0 0
30 c0 27 -3 30 -30 30 l-30 0 0 -60 0 -60 -30 0 -30 0 0 91 0 90 -27 -3 c-27
-3 -28 -6 -31 -61 -3 -57 -4 -58 -30 -55 -21 2 -28 9 -30 31 -3 26 -6 27 -58
27 -53 0 -54 0 -54 -30 0 -27 -3 -30 -30 -30 -27 0 -30 3 -30 30 0 27 -3 30
-30 30 l-30 0 0 60 0 60 -30 0 c-27 0 -30 -3 -30 -30 0 -27 -3 -30 -30 -30
-27 0 -30 -3 -30 -30 0 -27 -3 -30 -30 -30 -27 0 -30 -3 -30 -30 0 -27 3 -30
30 -30 27 0 30 -3 30 -30 l0 -30 61 0 c60 0 60 0 57 -27 -2 -22 -9 -29 -30
-31 -27 -3 -28 -5 -28 -63 l0 -59 31 0 c27 0 30 -3 27 -27 -2 -22 -8 -28 -28
-28 -20 0 -26 6 -28 28 -3 22 -8 27 -32 27 -24 0 -29 -5 -32 -27 -2 -22 -9
-29 -30 -31 -25 -3 -28 0 -28 27 0 30 -1 30 -57 33 -37 2 -58 7 -59 16 -1 6
-2 19 -3 27 -1 10 -11 15 -30 15 -28 0 -28 0 -26 -60 l2 -61 -61 3 c-58 3 -61
4 -61 28 0 20 -6 26 -28 28 -15 2 -28 6 -28 10 -1 4 -2 31 -3 60 -3 51 -2 52
26 52 28 0 28 1 28 59 0 57 -1 60 -27 63 -22 2 -28 9 -29 33 -5 60 5 85 35 85
23 0 27 4 26 28 0 22 5 28 27 30 21 3 27 9 30 30 2 22 9 28 35 30 l31 3 -1
-58 c-2 -56 -1 -58 26 -61 l27 -3 1 143 c1 79 1 146 0 151 0 4 13 7 29 7 l30
0 0 -150 0 -150 60 0 60 0 0 30 c0 27 -3 30 -30 30 l-30 0 0 60 0 60 30 0 c27
0 30 3 30 30 0 27 -3 30 -30 30 l-30 0 0 60 0 60 30 0 30 0 0 60 0 60 -30 0
-30 0 0 60 0 60 30 0 c27 0 30 -3 30 -30z m1250 -120 l0 -30 60 0 60 0 0 -30
c0 -27 -3 -30 -30 -30 l-30 0 0 -90 0 -90 30 0 c27 0 30 -3 30 -30 l0 -30 -60
0 -60 0 0 30 c0 27 -3 30 -30 30 -27 0 -30 -3 -30 -30 0 -27 -3 -30 -30 -30
-27 0 -30 -3 -30 -30 l0 -30 60 0 60 0 0 -60 0 -60 30 0 30 0 0 60 0 60 30 0
c27 0 30 -3 30 -30 0 -27 3 -30 30 -30 27 0 30 3 30 30 0 27 3 30 30 30 l30 0
0 -60 0 -60 30 0 c27 0 30 -3 30 -30 l0 -30 -60 0 -60 0 0 30 c0 27 -3 30 -30
30 -27 0 -30 -3 -30 -30 l0 -30 -120 0 -120 0 0 30 c0 27 -3 30 -30 30 -27 0
-30 -3 -30 -30 0 -27 -3 -30 -30 -30 -27 0 -30 3 -30 30 0 27 3 30 30 30 l30
0 0 90 0 90 -30 0 c-27 0 -30 3 -30 30 0 27 3 30 30 30 27 0 30 3 30 30 0 27
3 30 30 30 27 0 30 3 30 30 0 27 3 30 30 30 27 0 30 -3 30 -30 0 -27 3 -30 30
-30 l30 0 0 90 0 90 -30 0 c-27 0 -30 3 -30 30 0 27 3 30 30 30 27 0 30 -3 30
-30z m-2260 -60 c0 -27 -3 -30 -30 -30 l-30 0 0 -60 0 -60 -30 0 -30 0 0 90 0
90 60 0 60 0 0 -30z m295 -123 l2 -88 -91 3 -91 3 -1 88 -2 88 91 -3 90 -3 2
-88z m-951 11 c-1 -10 -2 -22 -3 -28 0 -5 -14 -10 -30 -10 -29 0 -32 9 -22 58
1 2 13 2 29 0 18 -2 27 -8 26 -20z m116 -8 c0 -27 -3 -30 -30 -30 -27 0 -30
-3 -30 -30 0 -27 3 -30 30 -30 30 0 30 0 30 -59 0 -58 -1 -60 -27 -63 -22 -2
-29 -9 -31 -30 l-3 -28 90 0 91 0 0 -30 c0 -27 3 -30 30 -30 27 0 30 -3 30
-30 0 -27 3 -30 30 -30 l30 0 0 60 0 60 30 0 30 0 0 -90 0 -90 -90 0 -90 0 0
60 0 60 -30 0 c-27 0 -30 -3 -30 -30 0 -27 -3 -30 -30 -30 -27 0 -30 3 -30 31
0 27 -3 30 -27 27 -22 -2 -29 -9 -31 -31 -3 -24 -7 -28 -30 -25 -21 2 -28 9
-30 31 -3 22 -8 27 -30 27 l-27 0 3 90 3 90 55 0 c53 0 54 0 54 30 0 26 -4 30
-28 30 -24 0 -28 4 -30 30 -2 27 0 30 28 30 25 0 30 4 30 23 0 30 7 37 37 37
19 0 23 -5 23 -30z m952 -30 c-4 -57 -5 -60 -30 -60 -26 0 -27 2 -25 53 0 28
2 55 2 60 1 4 13 7 29 7 27 0 27 0 24 -60z m-1187 -120 c0 -54 -1 -55 -30 -58
-30 -3 -30 -2 -29 45 2 76 2 75 31 71 27 -3 28 -6 28 -58z m355 -30 c0 -27 -3
-30 -30 -30 -27 0 -30 3 -30 30 0 27 3 30 30 30 27 0 30 -3 30 -30z m180 0 c0
-27 -3 -30 -30 -30 -27 0 -30 3 -30 30 0 27 3 30 30 30 27 0 30 -3 30 -30z
m2200 -150 l0 -60 -30 0 -30 0 0 60 0 60 30 0 30 0 0 -60z m480 -150 c0 -27 3
-30 30 -30 27 0 30 3 30 30 0 27 3 30 30 30 l31 0 -3 -87 -3 -88 -57 -3 -58
-3 0 31 c0 27 -3 30 -30 30 l-30 0 0 60 0 60 30 0 c27 0 30 -3 30 -30z m-2500
-61 c0 -27 3 -30 28 -27 21 2 28 9 30 31 3 23 8 27 33 27 l30 0 -3 -87 c-3
-88 -3 -88 -30 -91 -22 -3 -28 -9 -28 -27 0 -18 -6 -24 -27 -27 -22 -2 -29 -9
-31 -30 -3 -26 -2 -27 55 -30 l58 -3 3 -117 3 -118 -30 0 -30 0 -3 88 -3 87
-57 3 -58 3 0 -31 c0 -27 -3 -30 -30 -30 -27 0 -30 3 -30 30 0 27 3 30 30 30
l30 0 0 85 0 85 -30 0 c-25 0 -30 -4 -30 -24 0 -26 -14 -36 -42 -28 -15 4 -18
17 -18 88 l0 84 60 0 60 0 0 30 c0 27 3 30 30 30 27 0 30 -3 30 -31z m660
-103 c0 -29 -13 -46 -35 -46 -25 0 -38 21 -29 45 8 20 64 20 64 1z m1840 -70
c0 -17 -7 -25 -25 -28 -30 -6 -35 -2 -35 28 0 16 7 24 23 26 30 5 37 1 37 -26z
m-2740 -1 c0 -21 -5 -25 -30 -25 -25 0 -30 4 -30 25 0 21 5 25 30 25 25 0 30
-4 30 -25z m2858 -32 c-3 -57 -4 -58 -30 -55 -28 3 -28 3 -28 -57 l0 -61 -30
0 -31 0 3 58 c3 54 4 57 31 60 26 3 27 6 27 58 0 54 0 54 30 54 l31 0 -3 -57z
m-2860 -85 c3 -25 0 -28 -27 -28 -28 0 -31 3 -31 31 0 27 3 30 28 27 21 -2 28
-9 30 -30z m716 17 c9 -24 -4 -45 -29 -45 -22 0 -41 33 -29 52 9 14 52 9 58
-7z m2266 -15 c0 -27 -3 -30 -30 -30 -27 0 -30 -3 -30 -30 0 -27 -3 -30 -30
-30 -27 0 -30 3 -30 30 0 27 3 30 30 30 25 0 30 4 30 23 0 13 3 27 7 30 3 4
17 7 30 7 19 0 23 -5 23 -30z m-1612 -62 c3 -25 0 -28 -27 -28 -26 0 -31 4
-31 23 0 30 9 39 35 35 13 -2 21 -12 23 -30z m1312 2 c0 -27 -3 -30 -30 -30
-25 0 -30 4 -30 23 0 13 3 27 7 30 3 4 17 7 30 7 19 0 23 -5 23 -30z m-3333
-122 c2 -25 -2 -28 -28 -28 -16 0 -30 5 -30 10 -1 6 -2 16 -3 23 -4 21 5 28
32 25 21 -2 27 -9 29 -30z m3453 2 c0 -27 -3 -30 -30 -30 -27 0 -30 3 -30 30
0 27 3 30 30 30 27 0 30 -3 30 -30z m-2860 -60 c0 -27 -3 -30 -30 -30 l-30 0
0 -60 0 -60 30 0 30 0 0 -60 0 -60 -30 0 -30 0 0 60 0 60 -30 0 -30 0 0 -60 0
-60 -30 0 -30 0 0 60 0 60 30 0 30 0 0 60 0 60 30 0 c27 0 30 3 30 30 0 27 3
30 30 30 27 0 30 -3 30 -30z m-535 -120 l0 -85 -90 0 -90 0 -1 88 -1 88 91 -3
91 -3 0 -85z m1190 2 l0 -87 -91 -3 -92 -3 -1 91 -2 90 93 0 93 0 0 -88z
m1185 -2 l0 -90 -90 0 -90 0 0 90 0 90 90 0 90 0 0 -90z m1200 0 l0 -90 -90 0
-90 0 0 90 0 90 90 0 90 0 0 -90z m-3455 0 c0 -20 -5 -26 -30 -28 -27 -3 -30
0 -31 28 -1 29 1 31 30 28 26 -2 31 -7 31 -28z m775 0 c0 -27 3 -30 30 -30
l30 0 0 -60 0 -60 -30 0 c-27 0 -30 -3 -30 -30 0 -27 -3 -30 -30 -30 -27 0
-30 3 -30 30 0 27 -3 30 -30 30 -27 0 -30 3 -30 30 0 27 3 30 30 30 l30 0 0
60 0 60 30 0 c27 0 30 -3 30 -30z m-953 -180 c0 -27 -3 -30 -33 -30 -25 0 -32
4 -29 18 2 9 4 23 4 30 1 6 14 12 29 12 25 0 29 -4 29 -30z m2493 -60 c0 -27
-3 -30 -30 -30 -27 0 -30 3 -30 30 0 27 3 30 30 30 27 0 30 -3 30 -30z m-470
-60 c0 -27 -3 -30 -30 -30 -27 0 -30 3 -30 30 0 27 3 30 30 30 27 0 30 -3 30
-30z m-1490 -150 l0 -60 -30 0 -30 0 0 -60 0 -60 -30 0 -30 0 0 90 0 90 30 0
c27 0 30 3 30 30 0 27 3 30 30 30 l30 0 0 -60z m1018 28 c3 -23 8 -28 30 -28
26 0 27 -2 28 -60 l1 -60 -62 0 -61 0 1 88 c2 48 3 88 4 90 0 2 13 2 29 0 21
-2 28 -9 30 -30z m-898 -88 l0 -60 -30 0 -30 0 0 60 0 60 30 0 30 0 0 -60z
m-355 -30 c0 -23 -4 -25 -60 -30 -44 -4 -60 -9 -61 -20 -1 -8 -2 -21 -3 -27
-1 -14 -50 -18 -52 -5 0 4 -2 17 -5 30 -3 19 0 22 32 22 31 0 35 3 29 20 -10
33 3 41 63 38 53 -3 57 -5 57 -28z m55 -60 c0 -25 -4 -30 -24 -30 -22 0 -26
-6 -32 -45 -8 -57 -1 -75 31 -75 24 0 25 -2 25 -61 0 -60 0 -60 -27 -57 -26 3
-28 6 -30 53 -1 28 -2 53 -2 58 -1 4 -12 7 -25 7 -19 0 -25 -6 -28 -27 -2 -21
-9 -29 -27 -31 -30 -5 -42 8 -35 35 4 14 15 23 33 25 24 3 26 6 27 58 1 52 2
55 27 58 15 2 28 9 29 15 0 7 2 17 3 22 2 6 3 13 4 18 0 4 12 7 26 7 21 0 25
-5 25 -30z m240 -60 c0 -27 -3 -30 -30 -30 -27 0 -30 3 -30 30 0 27 3 30 30
30 27 0 30 -3 30 -30z m300 -30 l0 -60 -30 0 -30 0 0 60 0 60 30 0 30 0 0 -60z
m-420 -31 c0 -27 -3 -30 -27 -27 -22 2 -29 9 -31 31 -3 24 0 27 27 27 28 0 31
-3 31 -31z m897 -41 c-1 -38 5 -47 31 -50 21 -2 28 -9 30 -30 3 -21 9 -27 30
-30 21 -2 27 -8 27 -28 0 -20 -6 -26 -30 -30 -22 -4 -30 -11 -30 -25 0 -17 -8
-21 -50 -25 -66 -7 -72 -4 -67 29 3 23 8 27 27 24 16 -4 24 1 27 15 7 27 -2
39 -32 43 -23 4 -25 8 -27 62 l-1 57 33 0 c20 0 33 -5 32 -12z m533 -19 c0
-27 -3 -30 -27 -27 -22 2 -29 9 -31 31 -3 24 0 27 27 27 28 0 31 -3 31 -31z
m-1130 -173 c0 -19 -6 -25 -27 -28 -22 -2 -29 -9 -31 -30 -3 -28 -3 -28 57
-28 58 0 60 1 63 28 3 26 6 27 61 28 56 1 57 1 57 -27 0 -23 5 -28 28 -31 27
-3 27 -3 30 -90 l3 -88 -151 0 -150 0 0 90 0 90 -30 0 c-30 0 -30 1 -30 55 l0
55 60 0 c57 0 60 -1 60 -24z m-895 -56 c0 -21 -5 -26 -32 -28 -29 -3 -33 0
-33 21 0 31 9 39 40 35 19 -2 25 -9 25 -28z m123 0 c-1 -26 -5 -30 -28 -30
-19 0 -29 6 -33 19 -6 24 10 41 39 41 19 0 23 -5 22 -30z m3390 -62 c3 -25 0
-28 -27 -28 -26 0 -31 4 -31 23 0 30 9 39 35 35 13 -2 21 -12 23 -30z m-3332
-120 l1 -88 -91 0 -91 0 1 83 c1 45 2 86 3 90 0 4 40 6 89 5 l87 -3 1 -87z
m1190 0 l2 -88 -93 0 -93 0 -1 81 c-1 44 1 85 5 90 3 6 43 9 92 7 l86 -3 2
-87z m1184 2 l0 -90 -90 0 -90 0 1 83 c1 45 4 85 6 90 2 4 42 7 89 7 l84 0 0
-90z m1198 -2 l3 -88 -91 0 -90 0 0 90 0 91 88 -3 87 -3 3 -87z m-238 2 c0
-27 -3 -30 -30 -30 -27 0 -30 3 -30 30 0 27 3 30 30 30 27 0 30 -3 30 -30z
m-1849 -37 c0 -5 2 -18 5 -30 3 -20 0 -23 -31 -23 -33 0 -35 2 -31 28 2 15 5
28 5 30 2 6 51 1 52 -5z m657 -25 c3 -25 0 -28 -27 -28 -28 0 -31 3 -31 31 0
27 3 30 28 27 21 -2 28 -9 30 -30z m-1962 -90 l2 -58 -33 0 c-29 0 -32 3 -31
28 1 23 -4 28 -29 32 -30 5 -41 21 -31 47 4 10 21 13 63 11 l58 -3 1 -57z
m474 32 c0 -27 -3 -30 -30 -30 -27 0 -30 3 -30 30 0 27 3 30 30 30 27 0 30 -3
30 -30z m238 -2 c3 -27 6 -28 57 -28 57 0 70 -8 60 -40 -6 -18 -15 -20 -121
-20 l-114 0 0 30 c0 27 3 30 30 30 27 0 30 3 30 31 0 27 3 30 28 27 21 -2 28
-9 30 -30z m237 -58 c5 -24 12 -30 33 -30 26 0 27 -2 28 -60 l1 -60 -91 0 -91
0 1 -43 c2 -79 2 -79 31 -75 22 2 28 8 28 28 0 21 5 25 30 25 25 0 30 -4 30
-25 0 -20 -6 -26 -30 -30 -24 -4 -30 -10 -30 -30 0 -23 -4 -25 -57 -28 -57 -3
-58 -4 -58 -32 0 -27 -3 -30 -30 -30 -27 0 -30 -3 -30 -30 0 -27 3 -30 30 -30
27 0 30 -3 30 -30 0 -27 -3 -30 -30 -30 -27 0 -30 -3 -30 -30 0 -27 3 -30 30
-30 l30 0 0 -60 0 -60 58 0 58 0 -2 -87 -1 -88 -29 0 c-28 0 -29 1 -32 58 l-3
57 -84 0 -85 0 0 30 c0 27 -3 30 -30 30 -27 0 -30 3 -30 30 0 27 3 30 30 30
27 0 30 -3 30 -30 0 -27 3 -30 30 -30 l31 0 -3 58 -3 57 -57 3 c-57 3 -58 4
-58 32 0 27 3 30 30 30 l30 0 0 90 0 90 30 0 30 0 0 60 0 60 -30 0 -30 0 0 60
0 60 30 0 30 0 0 -60 0 -60 31 0 c29 0 30 2 29 38 -4 75 -2 82 25 82 24 0 29
8 26 42 -2 12 7 18 31 20 22 2 32 8 30 17 -5 25 7 41 32 41 19 0 26 -7 31 -30z
m-715 -630 l0 -60 -30 0 -30 0 0 -91 0 -90 -27 3 c-29 3 -29 3 -32 91 -1 23
-5 27 -30 27 l-30 0 1 90 1 90 89 0 88 0 0 -60z m1257 -27 c-3 -23 -9 -28 -33
-28 -24 0 -29 4 -31 28 -2 25 1 27 33 27 32 0 34 -2 31 -27z m1303 -3 c0 -27
3 -30 30 -30 27 0 30 -3 30 -30 0 -27 -3 -30 -30 -30 -27 0 -30 3 -30 30 0 27
-3 30 -30 30 -27 0 -30 3 -30 30 0 27 3 30 30 30 27 0 30 -3 30 -30z m-2795
-40 c-12 -20 6 -50 30 -50 29 0 36 -10 28 -39 -5 -20 -11 -22 -61 -19 l-56 3
0 58 -1 57 33 0 c20 0 31 -4 27 -10z m1187 -20 c-4 -29 -6 -30 -58 -30 -36 0
-54 4 -55 13 0 6 -2 20 -4 30 -3 15 5 17 59 17 l63 0 -5 -30z m-172 -44 c0
-29 -13 -46 -35 -46 -22 0 -35 17 -35 46 0 9 11 14 35 14 24 0 35 -5 35 -14z
m236 -76 c1 -26 -2 -30 -26 -30 -34 0 -38 -5 -32 -35 3 -19 11 -25 32 -25 27
0 29 -5 21 -53 -2 -15 -56 -3 -57 13 -1 8 -2 20 -3 27 -1 7 -23 13 -58 15
l-56 3 -1 58 -1 57 90 0 90 0 1 -30z m-240 -175 l-1 -85 -90 0 -91 0 -2 85 -3
85 94 0 94 0 -1 -85z m1184 0 l0 -85 -88 0 -88 0 0 85 0 85 88 0 88 0 0 -85z
m1200 0 l0 -85 -90 0 -90 0 0 85 0 85 90 0 90 0 0 -85z m-1490 -61 l0 -84 55
0 c54 0 55 0 55 -30 0 -27 3 -30 29 -30 25 0 30 4 33 28 2 21 9 28 31 30 24 3
27 0 27 -27 0 -28 -3 -31 -30 -31 -27 0 -30 -3 -30 -30 0 -25 -4 -30 -25 -30
-20 0 -27 -6 -31 -30 -5 -23 -12 -30 -30 -30 -21 0 -23 5 -26 58 l-3 57 -57 3
-58 3 0 114 c0 100 2 114 18 117 37 9 42 -2 42 -88z m-302 -57 l3 -28 -58 3
c-58 3 -63 8 -54 54 1 3 25 4 54 2 49 -3 52 -5 55 -31z m-713 -48 c9 -27 -6
-42 -36 -37 -17 2 -23 9 -22 26 1 32 1 32 27 32 16 0 27 -7 31 -21z m120 -9
c0 -21 -5 -26 -32 -28 -29 -3 -33 0 -33 21 0 31 9 39 40 35 19 -2 25 -9 25
-28z m482 0 c-2 -27 -6 -30 -34 -30 -29 0 -31 3 -29 28 2 15 4 28 5 30 0 1 14
2 31 2 26 0 29 -3 27 -30z m1663 -60 c0 -27 -3 -30 -30 -30 -27 0 -30 -3 -30
-30 0 -27 -3 -30 -30 -30 -27 0 -30 3 -30 30 0 27 3 30 30 30 27 0 30 3 30 30
0 27 3 30 30 30 27 0 30 -3 30 -30z"/>
<path d="M2590 4230 c0 -27 3 -30 30 -30 27 0 30 3 30 30 0 27 -3 30 -30 30
-27 0 -30 -3 -30 -30z"/>
<path d="M2710 4201 l0 -61 -30 0 c-27 0 -30 -3 -30 -30 0 -27 3 -30 30 -30
27 0 30 -3 30 -30 0 -27 -3 -30 -29 -30 -25 0 -30 4 -33 28 -2 21 -9 28 -30
30 -24 3 -28 8 -28 33 0 29 0 29 -60 29 l-60 0 0 -60 0 -60 30 0 c27 0 30 3
30 30 0 27 3 30 30 30 l30 0 0 -60 0 -60 -60 0 -60 0 0 -30 0 -30 60 0 60 0 0
-30 0 -30 60 0 60 0 0 30 c0 25 4 30 25 30 21 0 25 -5 25 -30 0 -27 3 -30 29
-30 25 0 30 4 33 28 2 21 9 28 31 30 24 3 27 0 27 -27 0 -28 3 -31 30 -31 27
0 30 -3 30 -30 l0 -30 60 0 60 0 0 90 0 90 -30 0 -30 0 0 150 0 150 -85 0 -85
0 -6 -30 c-6 -25 -11 -30 -36 -30 -26 0 -29 3 -26 28 3 23 -1 27 -24 30 -28 3
-28 3 -28 -57z m230 -151 l0 -90 -90 0 -90 0 0 90 0 90 90 0 90 0 0 -90z
m-292 -122 c3 -25 0 -28 -27 -28 -28 0 -31 3 -31 31 0 27 3 30 28 27 21 -2 28
-9 30 -30z m352 -58 c0 -27 -3 -30 -30 -30 -27 0 -30 3 -30 30 0 27 3 30 30
30 27 0 30 -3 30 -30z"/>
<path d="M2827 4073 c-4 -3 -7 -17 -7 -30 0 -19 5 -23 30 -23 27 0 30 3 30 30
0 25 -4 30 -23 30 -13 0 -27 -3 -30 -7z"/>
<path d="M3300 4050 c0 -27 -3 -30 -30 -30 -27 0 -30 -3 -30 -30 0 -27 -3 -30
-30 -30 -27 0 -30 -3 -30 -30 0 -27 -3 -30 -30 -30 -27 0 -30 -3 -30 -30 0
-27 3 -30 30 -30 27 0 30 3 30 30 0 27 3 30 30 30 27 0 30 3 30 30 0 27 3 30
30 30 27 0 30 -3 30 -30 0 -27 3 -30 30 -30 l30 0 0 90 0 90 -30 0 c-27 0 -30
-3 -30 -30z"/>
<path d="M2294 3767 c-3 -8 -4 -47 -2 -88 3 -72 4 -74 31 -77 23 -3 27 -8 27
-33 0 -27 -3 -30 -27 -27 -22 2 -29 9 -31 31 -3 26 -6 27 -58 27 -59 0 -56 4
-57 -75 0 -37 2 -40 29 -40 19 0 29 5 30 15 2 36 5 40 29 40 21 0 25 -5 25
-30 0 -27 3 -30 30 -30 27 0 30 3 30 30 0 27 3 30 30 30 l30 0 0 -60 0 -60 30
0 30 0 0 90 0 90 -60 0 -60 0 0 90 c0 90 0 90 -25 90 -14 0 -28 -6 -31 -13z"/>
<path d="M2650 3750 c0 -27 3 -30 30 -30 27 0 30 3 30 30 0 27 -3 30 -30 30
-27 0 -30 -3 -30 -30z"/>
<path d="M3120 3750 c0 -27 3 -30 30 -30 27 0 30 3 30 30 0 27 -3 30 -30 30
-27 0 -30 -3 -30 -30z"/>
<path d="M2114 3705 c-10 -25 4 -45 31 -45 21 0 25 5 25 30 0 25 -4 30 -25 30
-14 0 -28 -7 -31 -15z"/>
<path d="M3480 3510 c0 -27 3 -30 30 -30 27 0 30 3 30 30 0 27 -3 30 -30 30
-27 0 -30 -3 -30 -30z"/>
<path d="M2117 3473 c-2 -5 -3 -17 -3 -28 1 -30 51 -34 59 -4 3 12 4 26 1 31
-6 10 -51 11 -57 1z"/>
<path d="M2880 3451 c0 -25 -4 -30 -27 -33 -22 -2 -28 -8 -28 -28 0 -23 4 -25
58 -28 53 -3 57 -5 57 -27 0 -23 4 -25 53 -26 28 -1 55 -1 60 0 4 0 7 -12 7
-29 l0 -30 120 0 120 0 0 -29 c0 -25 -4 -30 -27 -33 -22 -2 -29 -9 -31 -30 -3
-24 -8 -28 -33 -28 -26 0 -29 3 -29 30 l0 31 -87 -3 -88 -3 -3 -87 -3 -88 60
0 60 0 3 58 c3 54 4 57 31 60 27 3 27 3 27 -57 l0 -61 30 0 30 0 0 -60 0 -60
-30 0 c-27 0 -30 3 -30 30 0 27 -3 30 -30 30 -27 0 -30 -3 -30 -30 0 -27 3
-30 30 -30 l30 0 0 -90 0 -90 30 0 30 0 0 -90 0 -90 -30 0 c-27 0 -30 -3 -30
-30 0 -27 -3 -30 -30 -30 -27 0 -30 -3 -30 -30 0 -27 3 -30 30 -30 27 0 30 3
30 30 0 27 3 30 30 30 l30 0 0 -60 0 -60 30 0 c27 0 30 3 30 30 0 27 3 30 30
30 l30 0 0 60 0 60 -30 0 -30 0 0 90 0 90 30 0 c27 0 30 3 30 30 0 27 -3 30
-30 30 l-30 0 0 60 0 60 30 0 c27 0 30 3 30 30 0 27 -3 30 -30 30 -27 0 -30 3
-30 30 0 27 3 30 30 30 27 0 30 3 30 30 0 27 -3 30 -31 30 -27 0 -30 3 -27 28
l3 27 118 3 117 3 0 -31 c0 -27 -3 -30 -30 -30 -27 0 -30 -3 -30 -30 0 -27 3
-30 30 -30 27 0 30 -3 30 -30 l0 -30 -60 0 -60 0 0 -30 c0 -27 3 -30 30 -30
l30 0 0 -60 0 -60 30 0 c27 0 30 -3 30 -30 0 -27 3 -30 30 -30 l30 0 0 60 0
60 30 0 c27 0 30 -3 30 -30 0 -27 3 -30 30 -30 27 0 30 3 30 30 0 27 -3 30
-30 30 -27 0 -30 3 -30 30 l0 30 -60 0 -60 0 0 30 c0 27 3 30 30 30 27 0 30 3
30 30 0 27 -3 30 -30 30 -27 0 -30 3 -30 30 0 27 3 30 30 30 27 0 30 3 30 30
0 27 -3 30 -30 30 -27 0 -30 3 -30 30 0 27 -3 30 -30 30 -27 0 -30 3 -30 31 0
27 -3 30 -27 27 -22 -2 -29 -9 -31 -30 -3 -24 -8 -28 -33 -28 -29 0 -29 0 -29
60 l0 60 -90 0 c-89 0 -90 0 -90 25 0 22 -4 24 -57 27 -55 3 -58 5 -61 30 -3
25 -7 27 -60 30 -54 3 -57 5 -60 31 -3 23 -8 27 -33 27 -25 0 -29 -4 -29 -29z
m420 -951 c0 -27 -3 -30 -30 -30 -27 0 -30 3 -30 30 0 27 3 30 30 30 27 0 30
-3 30 -30z"/>
<path d="M3182 3453 c2 -22 9 -29 30 -31 21 -3 27 -9 30 -30 2 -21 9 -28 31
-30 27 -3 27 -3 27 57 l0 61 -61 0 c-60 0 -60 0 -57 -27z"/>
<path d="M2823 3294 c-2 -7 -3 -31 -1 -55 3 -40 6 -44 31 -47 22 -3 27 -8 27
-32 0 -24 -5 -29 -27 -32 -22 -2 -29 -9 -31 -30 -3 -25 0 -28 27 -28 28 0 31
3 31 30 0 27 3 30 30 30 l30 0 0 60 0 60 -30 0 c-27 0 -30 3 -30 30 0 26 -3
30 -26 28 -15 -2 -28 -8 -31 -14z"/>
<path d="M3660 3040 c0 -27 3 -30 30 -30 27 0 30 3 30 30 0 27 -3 30 -30 30
-27 0 -30 -3 -30 -30z"/>
<path d="M2470 2980 c0 -27 3 -30 30 -30 27 0 30 3 30 30 0 27 -3 30 -30 30
-27 0 -30 -3 -30 -30z"/>
<path d="M2530 2860 c0 -27 3 -30 30 -30 27 0 30 3 30 30 0 27 -3 30 -30 30
-27 0 -30 -3 -30 -30z"/>
<path d="M4020 2620 c0 -27 -3 -30 -30 -30 l-30 0 0 -90 0 -90 30 0 30 0 0 90
0 90 30 0 c27 0 30 3 30 30 0 27 -3 30 -30 30 -27 0 -30 -3 -30 -30z"/>
<path d="M4259 2463 c-8 -48 -6 -53 22 -53 26 0 29 4 29 30 0 25 -4 30 -25 30
-14 0 -26 -3 -26 -7z"/>
<path d="M3000 2320 c0 -27 3 -30 30 -30 27 0 30 3 30 30 0 27 -3 30 -30 30
-27 0 -30 -3 -30 -30z"/>
<path d="M3420 2320 c0 -27 3 -30 30 -30 27 0 30 3 30 30 0 27 -3 30 -30 30
-27 0 -30 -3 -30 -30z"/>
<path d="M3180 2260 c0 -27 3 -30 30 -30 l30 0 0 -60 0 -60 30 0 c27 0 30 3
30 30 0 27 3 30 30 30 27 0 30 -3 30 -30 0 -27 3 -30 30 -30 27 0 30 -3 30
-30 l0 -30 60 0 60 0 0 -30 c0 -27 -3 -30 -30 -30 -30 0 -30 -1 -30 -54 0 -52
-1 -55 -27 -58 -22 -2 -29 -9 -31 -30 -3 -28 -3 -28 57 -28 l61 0 0 85 0 85
30 0 c27 0 30 3 30 30 0 27 -3 30 -30 30 -27 0 -30 3 -30 30 0 27 3 30 30 30
27 0 30 3 30 30 0 27 -3 30 -30 30 -27 0 -30 3 -30 30 0 27 3 30 30 30 27 0
30 3 30 30 0 27 -3 30 -30 30 -27 0 -30 -3 -30 -30 l0 -30 -60 0 -60 0 0 -30
c0 -27 -3 -30 -30 -30 l-30 0 0 60 0 60 -30 0 c-27 0 -30 -3 -30 -30 0 -27 -3
-30 -30 -30 -27 0 -30 3 -30 30 0 27 -3 30 -30 30 -27 0 -30 -3 -30 -30z"/>
<path d="M2118 2020 c3 -24 9 -30 28 -30 13 0 25 -6 25 -12 1 -7 2 -20 3 -28
0 -9 14 -16 34 -18 l33 -3 -3 -52 -3 -52 -60 -5 c-61 -5 -62 -6 -56 -50 0 -5
27 -10 59 -10 57 0 58 1 58 28 -1 22 4 28 26 30 21 3 27 9 30 30 2 21 9 28 31
30 21 3 27 9 27 27 0 18 -6 24 -27 27 -22 2 -28 8 -28 28 0 20 -7 26 -30 30
-24 4 -31 11 -33 33 -3 26 -6 27 -61 27 l-58 0 5 -30z"/>
<path d="M3182 2023 c2 -22 9 -29 31 -31 23 -3 27 -8 27 -33 0 -26 -3 -29 -30
-29 -25 0 -30 -4 -30 -25 0 -21 5 -25 30 -25 27 0 30 -3 30 -30 0 -27 3 -30
30 -30 27 0 30 -3 30 -30 0 -27 3 -30 30 -30 l30 0 0 85 0 85 30 0 c27 0 30 3
30 29 0 25 -4 30 -27 33 -22 2 -29 9 -31 31 -3 23 -8 27 -33 27 -26 0 -29 -3
-29 -30 0 -27 -3 -30 -30 -30 -27 0 -30 3 -30 30 0 27 -3 30 -31 30 -27 0 -30
-3 -27 -27z"/>
<path d="M3662 2023 c2 -22 9 -29 31 -31 24 -3 27 0 27 27 0 28 -3 31 -31 31
-27 0 -30 -3 -27 -27z"/>
<path d="M2117 1923 c-14 -13 -6 -34 16 -42 25 -10 49 11 40 35 -5 14 -44 19
-56 7z"/>
<path d="M2710 1905 c0 -20 5 -25 24 -25 15 0 26 7 29 19 6 25 0 31 -30 31
-18 0 -23 -5 -23 -25z"/>
<path d="M3660 1550 c0 -27 -3 -30 -30 -30 -27 0 -30 -3 -30 -30 0 -27 3 -30
30 -30 27 0 30 3 30 30 0 27 3 30 30 30 27 0 30 -3 30 -30 0 -27 3 -30 30 -30
l30 0 0 60 0 60 -60 0 -60 0 0 -30z"/>
<path d="M3120 1490 c0 -27 3 -30 30 -30 27 0 30 -3 30 -30 0 -27 3 -30 30
-30 27 0 30 -3 30 -30 l0 -30 60 0 60 0 0 60 0 60 -30 0 c-27 0 -30 3 -30 30
l0 30 -90 0 -90 0 0 -30z"/>
<path d="M3900 1430 c0 -27 -3 -30 -30 -30 -27 0 -30 -3 -30 -30 0 -27 -3 -30
-30 -30 -27 0 -30 -3 -30 -30 0 -27 -3 -30 -30 -30 l-30 0 0 -60 0 -60 -30 0
c-27 0 -30 -3 -30 -30 l0 -30 60 0 60 0 0 90 0 90 30 0 c27 0 30 3 30 30 0 27
3 30 30 30 27 0 30 3 30 30 0 27 3 30 30 30 27 0 30 3 30 30 0 27 -3 30 -30
30 -27 0 -30 -3 -30 -30z"/>
<path d="M2590 1310 c0 -27 3 -30 30 -30 27 0 30 3 30 30 0 27 -3 30 -30 30
-27 0 -30 -3 -30 -30z"/>
<path d="M3420 1310 l0 -30 -150 0 -150 0 0 -30 c0 -27 3 -30 30 -30 27 0 30
-3 30 -30 l0 -30 60 0 60 0 0 -60 0 -60 -60 0 -60 0 0 -30 c0 -27 -3 -30 -30
-30 -27 0 -30 -3 -30 -30 l0 -30 60 0 60 0 0 -30 c0 -27 -3 -30 -30 -30 -27 0
-30 -3 -30 -30 0 -27 3 -30 30 -30 27 0 30 -3 30 -30 0 -27 3 -30 30 -30 27 0
30 3 30 30 0 27 -3 30 -30 30 -27 0 -30 3 -30 30 0 27 3 30 30 30 l30 0 0 90
0 90 30 0 c27 0 30 -3 30 -30 0 -27 3 -30 30 -30 27 0 30 3 30 30 0 27 -3 30
-30 30 l-30 0 0 60 0 60 -30 0 c-27 0 -30 3 -30 30 l0 30 60 0 60 0 0 30 c0
27 3 30 30 30 l30 0 0 -90 0 -90 30 0 30 0 0 90 0 90 -30 0 c-27 0 -30 3 -30
30 0 27 -3 30 -30 30 -27 0 -30 -3 -30 -30z"/>
<path d="M2822 1103 l3 -58 88 -3 87 -3 0 -89 0 -90 -60 0 -60 0 0 30 c0 27
-3 30 -30 30 -27 0 -30 -3 -30 -30 0 -27 3 -30 30 -30 27 0 30 -3 30 -30 l0
-30 60 0 60 0 0 -30 0 -30 -60 0 -60 0 0 -30 0 -30 90 0 90 0 0 60 0 60 -30 0
c-27 0 -30 3 -30 30 0 27 3 30 30 30 l30 0 0 90 0 90 30 0 c27 0 30 3 30 30 0
27 -3 30 -30 30 -27 0 -30 3 -30 30 0 27 -3 30 -30 30 -27 0 -30 -3 -30 -30
l0 -30 -60 0 -60 0 0 30 c0 27 -3 30 -30 30 l-31 0 3 -57z m238 -33 c0 -27 -3
-30 -30 -30 -27 0 -30 3 -30 30 0 27 3 30 30 30 27 0 30 -3 30 -30z"/>
<path d="M3840 860 l0 -60 30 0 30 0 0 60 0 60 -30 0 -30 0 0 -60z"/>
<path d="M2472 773 c2 -22 9 -29 31 -31 24 -3 27 0 27 27 0 28 -3 31 -31 31
-27 0 -30 -3 -27 -27z"/>
<path d="M3360 710 c0 -27 3 -30 30 -30 27 0 30 3 30 30 0 27 -3 30 -30 30
-27 0 -30 -3 -30 -30z"/>
<path d="M3900 710 c0 -27 3 -30 30 -30 27 0 30 3 30 30 0 27 -3 30 -30 30
-27 0 -30 -3 -30 -30z"/>
<path d="M3122 533 c2 -22 9 -29 31 -31 24 -3 27 0 27 27 0 28 -3 31 -31 31
-27 0 -30 -3 -27 -27z"/>
<path d="M3540 3930 c0 -27 3 -30 30 -30 27 0 30 3 30 30 0 27 -3 30 -30 30
-27 0 -30 -3 -30 -30z"/>
<path d="M1636 4065 c-9 -26 5 -45 33 -45 23 0 27 4 25 23 -1 12 -3 25 -3 30
-2 14 -49 7 -55 -8z"/>
<path d="M1342 3453 c2 -22 8 -28 28 -28 20 0 26 6 28 28 3 24 0 27 -28 27
-28 0 -31 -3 -28 -27z"/>
<path d="M449 2883 c0 -5 -2 -18 -3 -30 -2 -19 2 -23 24 -23 34 0 38 5 32 35
-3 18 -11 25 -28 25 -13 0 -24 -3 -25 -7z"/>
<path d="M1639 2885 c-8 -37 -2 -50 27 -53 29 -3 30 -1 26 27 -3 25 -9 31 -28
31 -13 0 -24 -2 -25 -5z"/>
<path d="M2827 2883 c-4 -3 -7 -17 -7 -30 0 -19 5 -23 30 -23 27 0 30 3 30 30
0 25 -4 30 -23 30 -13 0 -27 -3 -30 -7z"/>
<path d="M4020 2860 c0 -27 3 -30 30 -30 27 0 30 3 30 30 0 27 -3 30 -30 30
-27 0 -30 -3 -30 -30z"/>
<path d="M1400 2741 c0 -28 3 -31 31 -31 27 0 30 3 27 28 -2 21 -9 28 -30 30
-25 3 -28 0 -28 -27z"/>
<path d="M1407 1814 c-4 -4 -7 -31 -7 -61 0 -52 0 -53 30 -53 l31 0 -3 58 c-3
49 -6 57 -23 60 -12 2 -24 0 -28 -4z"/>
<path d="M447 1679 c-8 -30 -1 -39 31 -39 24 0 27 4 27 28 -1 21 -7 28 -27 30
-19 2 -27 -2 -31 -19z"/>
<path d="M1635 1680 c-9 -27 1 -40 31 -40 20 0 24 5 24 30 0 25 -4 30 -24 30
-16 0 -27 -7 -31 -20z"/>
<path d="M2827 1693 c-4 -3 -7 -17 -7 -30 0 -19 5 -23 30 -23 27 0 30 3 30 30
0 25 -4 30 -23 30 -13 0 -27 -3 -30 -7z"/>
<path d="M4020 1671 c0 -28 3 -31 31 -31 27 0 30 3 27 28 -2 21 -9 28 -30 30
-25 3 -28 0 -28 -27z"/>
<path d="M1636 1452 c-12 -20 2 -47 27 -50 24 -3 27 0 27 27 0 26 -4 31 -24
31 -14 0 -27 -4 -30 -8z"/>
<path d="M1636 485 c-9 -25 4 -45 30 -43 19 2 24 8 24 30 0 23 -4 28 -24 28
-13 0 -26 -7 -30 -15z"/>
<path d="M2820 476 c0 -23 16 -36 46 -36 9 0 14 11 14 30 0 27 -3 30 -30 30
-25 0 -30 -4 -30 -24z"/>
<path d="M4022 473 c2 -22 8 -28 28 -28 20 0 26 6 28 28 3 24 0 27 -28 27 -28
0 -31 -3 -28 -27z"/>
<path d="M1820 4410 c0 -27 3 -30 30 -30 26 0 29 -3 27 -27 -2 -24 2 -28 26
-31 29 -4 28 -5 31 71 l1 42 -58 3 -57 3 0 -31z"/>
<path d="M1997 4428 c-9 -28 5 -49 32 -46 25 3 27 8 22 48 -2 14 -49 12 -54
-2z"/>
<path d="M3180 4380 l0 -60 30 0 30 0 0 60 0 60 -30 0 -30 0 0 -60z"/>
<path d="M3540 4410 c0 -27 3 -30 30 -30 27 0 30 3 30 30 0 27 -3 30 -30 30
-27 0 -30 -3 -30 -30z"/>
<path d="M3900 4410 c0 -27 3 -30 30 -30 27 0 30 3 30 30 0 27 -3 30 -30 30
-27 0 -30 -3 -30 -30z"/>
<path d="M4020 4230 l0 -210 205 0 205 0 0 210 0 210 -205 0 -205 0 0 -210z
m350 0 l0 -150 -145 0 -145 0 0 150 0 150 145 0 145 0 0 -150z"/>
<path d="M4140 4230 l0 -90 85 0 85 0 0 90 0 90 -85 0 -85 0 0 -90z"/>
<path d="M567 4253 c-2 -5 -2 -14 -1 -20 1 -7 2 -17 3 -23 0 -5 14 -10 31 -10
26 0 29 3 26 23 -3 12 -5 25 -5 30 -1 4 -12 7 -25 7 -14 0 -27 -3 -29 -7z"/>
<path d="M566 4065 c-10 -27 5 -46 33 -43 25 3 27 8 22 48 -2 16 -48 12 -55
-5z"/>
<path d="M209 3943 c-1 -10 -2 -36 -3 -58 -1 -36 -4 -40 -28 -43 -23 -3 -28
-8 -28 -32 0 -25 -4 -29 -32 -32 -27 -2 -34 -8 -36 -30 -3 -24 1 -27 29 -30
32 -3 33 -3 34 -60 1 -57 1 -57 -29 -60 -26 -2 -31 -7 -31 -28 0 -20 6 -26 28
-28 17 -2 27 2 28 10 1 7 2 20 3 28 1 10 12 15 31 15 25 0 30 -4 30 -25 0 -20
6 -26 28 -28 24 -3 27 0 27 27 0 26 -4 31 -24 31 -26 0 -39 20 -30 45 4 8 17
15 30 15 20 0 24 5 24 30 0 29 1 29 62 32 59 3 62 4 65 31 4 27 3 27 -56 27
-58 0 -60 -1 -66 -30 -5 -23 -12 -30 -31 -30 -22 0 -24 4 -25 45 -1 25 -2 51
-3 58 -1 8 19 14 59 17 56 5 60 7 60 30 0 21 -5 26 -32 28 -29 3 -33 7 -33 33
0 24 -4 29 -25 29 -17 0 -25 -6 -26 -17z"/>
<path d="M329 3945 c-1 -8 -2 -21 -3 -27 -1 -7 12 -15 29 -18 28 -5 30 -8 32
-55 0 -27 2 -53 2 -57 1 -5 26 -8 56 -8 54 0 55 0 55 30 0 27 -3 30 -30 30
-19 0 -30 5 -30 14 0 29 13 46 35 46 25 0 38 21 29 45 -5 12 -25 15 -90 15
-67 0 -84 -3 -85 -15z"/>
<path d="M4370 3721 l0 -240 -27 -3 c-22 -2 -28 -8 -28 -28 0 -20 6 -26 28
-28 26 -3 27 -6 27 -58 0 -53 0 -54 30 -54 30 0 30 1 30 55 0 54 0 55 -30 55
-27 0 -30 3 -30 30 0 27 3 30 30 30 l30 0 0 240 0 240 -30 0 -30 0 0 -239z"/>
<path d="M448 3693 c-2 -22 -9 -29 -30 -31 -24 -3 -28 -8 -28 -33 0 -26 3 -29
31 -29 27 0 30 -3 27 -27 -2 -22 -9 -29 -32 -33 -17 -3 -29 -8 -28 -12 1 -5 2
-17 2 -29 0 -16 5 -20 28 -17 22 2 27 8 26 31 -1 23 3 27 27 27 26 0 29 4 29
30 0 25 -4 30 -24 30 -14 0 -25 7 -28 18 -7 27 2 42 27 42 16 0 24 7 27 25 6
30 2 35 -28 35 -17 0 -23 -7 -26 -27z"/>
<path d="M629 3538 c-1 -2 -2 -15 -3 -30 -3 -25 1 -28 25 -28 33 0 40 9 32 38
-3 15 -13 22 -29 22 -13 0 -24 -1 -25 -2z"/>
<path d="M149 3466 c-1 -9 -2 -22 -3 -28 0 -7 -16 -14 -34 -16 -29 -3 -33 -6
-30 -30 3 -26 5 -27 63 -27 l60 0 0 55 c0 53 -1 55 -27 58 -20 2 -28 -1 -29
-12z"/>
<path d="M269 3473 c-1 -13 -1 -87 0 -100 0 -6 13 -13 29 -15 19 -2 27 -9 27
-23 0 -14 -8 -21 -27 -23 -24 -3 -28 -8 -28 -33 0 -28 -2 -30 -32 -27 -21 2
-34 9 -34 18 -1 8 -2 21 -3 28 0 6 -12 12 -26 12 -21 0 -25 -5 -25 -29 0 -26
-4 -30 -32 -33 -28 -2 -33 -7 -33 -28 0 -21 5 -25 30 -25 20 0 29 5 27 14 -1
7 3 19 9 27 14 17 48 18 51 2 0 -7 2 -17 3 -23 2 -5 3 -27 4 -47 1 -33 4 -38
25 -38 19 0 25 6 28 28 2 21 9 28 31 30 28 3 28 2 31 87 1 25 6 30 31 35 22 4
30 11 30 25 0 15 -8 21 -33 23 -31 3 -32 4 -27 44 7 57 -1 78 -31 78 -13 0
-24 -3 -25 -7z"/>
<path d="M4250 3396 c0 -23 16 -36 46 -36 9 0 14 11 14 30 0 27 -3 30 -30 30
-25 0 -30 -4 -30 -24z"/>
<path d="M387 3303 c-2 -5 -3 -30 -3 -58 l1 -50 56 -3 c53 -3 57 -2 61 22 5
26 -7 36 -44 36 -14 0 -18 5 -14 16 4 9 1 23 -5 30 -12 15 -45 19 -52 7z"/>
<path d="M1637 3183 c-2 -5 -4 -30 -3 -58 l1 -50 58 -3 57 -3 0 31 c0 27 -3
30 -30 30 -27 0 -30 3 -30 30 0 25 -4 30 -24 30 -14 0 -27 -3 -29 -7z"/>
<path d="M148 3123 c-2 -4 -3 -14 -2 -20 1 -7 2 -18 3 -24 0 -6 13 -9 29 -7
21 2 27 8 27 28 0 20 -6 26 -27 28 -14 2 -28 0 -30 -5z"/>
<path d="M87 3063 c-4 -3 -7 -17 -7 -30 0 -19 5 -23 29 -23 16 0 31 -6 34 -13
2 -7 5 -61 6 -120 l2 -107 -34 0 c-30 0 -33 -3 -33 -30 0 -26 3 -30 27 -30 26
0 39 -15 39 -46 0 -9 -11 -14 -35 -14 l-35 0 0 -90 0 -90 30 0 c29 0 37 14 31
53 0 4 14 7 32 7 30 0 33 3 33 28 -1 22 4 28 27 30 23 3 27 8 27 33 0 25 -4
29 -29 29 -22 0 -28 4 -26 18 2 9 4 23 4 30 1 6 14 12 30 12 30 0 28 -7 23 90
-2 26 -6 30 -30 30 -26 0 -28 3 -24 30 3 23 9 30 27 30 13 0 25 7 29 15 9 26
-5 45 -34 45 -19 0 -27 5 -27 18 0 37 -4 42 -33 42 -27 0 -30 3 -30 30 0 25
-4 30 -23 30 -13 0 -27 -3 -30 -7z"/>
<path d="M205 3048 c1 -13 3 -26 4 -30 1 -9 45 -11 53 -3 3 3 3 17 0 30 -3 19
-11 25 -32 25 -22 0 -27 -4 -25 -22z"/>
<path d="M4317 3003 c-4 -3 -7 -17 -7 -30 0 -22 4 -23 60 -23 l60 0 0 30 c0
30 -1 30 -53 30 -30 0 -57 -3 -60 -7z"/>
<path d="M1698 2633 c-7 -28 2 -43 26 -43 30 0 34 6 28 35 -5 30 -47 35 -54 8z"/>
<path d="M2056 2634 c-12 -32 -6 -44 23 -44 29 0 43 20 34 48 -7 17 -50 15
-57 -4z"/>
<path d="M1520 2500 l0 -30 61 0 c60 0 60 0 57 -27 -2 -23 1 -29 21 -31 13 -2
27 2 31 8 14 22 -1 49 -29 52 -20 2 -26 8 -26 28 0 23 -4 25 -57 28 l-58 3 0
-31z"/>
<path d="M148 2463 c-2 -4 -3 -14 -2 -20 1 -7 2 -17 3 -23 0 -5 14 -10 29 -10
26 0 29 -3 27 -30 l-2 -31 91 3 c90 3 91 3 91 28 0 20 -6 26 -30 30 -24 4 -30
10 -30 30 0 19 -6 26 -24 28 -27 4 -43 -15 -35 -41 5 -16 1 -18 -28 -15 -28 2
-33 7 -33 28 0 20 -6 26 -27 28 -14 2 -28 0 -30 -5z"/>
<path d="M449 2403 c0 -5 -2 -18 -3 -30 -2 -19 2 -23 26 -23 24 0 28 4 28 30
0 25 -4 30 -25 30 -14 0 -25 -3 -26 -7z"/>
<path d="M388 2278 c-3 -12 -3 -41 1 -90 1 -13 10 -18 29 -18 24 0 28 -4 28
-27 -1 -19 5 -29 17 -31 31 -6 45 5 40 32 -4 18 -12 26 -32 28 -21 2 -26 9
-27 31 -1 23 3 27 27 27 26 0 29 4 29 30 0 30 -1 30 -54 30 -34 0 -55 -5 -58
-12z"/>
<path d="M387 2103 c-12 -25 0 -48 26 -51 15 -2 27 0 28 5 0 4 2 18 5 31 3 19
0 22 -25 22 -17 0 -32 -3 -34 -7z"/>
<path d="M1580 2020 c0 -25 4 -30 24 -30 14 0 25 7 28 18 8 28 -2 42 -28 42
-20 0 -24 -5 -24 -30z"/>
<path d="M4317 1983 c-18 -17 -6 -44 23 -49 23 -5 30 -12 30 -30 0 -20 5 -24
30 -24 30 0 30 1 30 55 l0 55 -53 0 c-30 0 -57 -3 -60 -7z"/>
<path d="M980 1490 c0 -27 3 -30 30 -30 27 0 30 3 30 30 0 27 -3 30 -30 30
-27 0 -30 -3 -30 -30z"/>
<path d="M324 1430 l1 -31 90 3 c89 3 90 3 90 28 0 25 -2 25 -91 28 l-92 3 2
-31z"/>
<path d="M1879 1455 c-8 -36 -2 -50 24 -53 24 -3 27 0 27 27 0 26 -4 31 -25
31 -14 0 -25 -2 -26 -5z"/>
<path d="M210 1370 c0 -25 4 -30 25 -30 14 0 26 3 26 8 8 47 6 52 -22 52 -26
0 -29 -4 -29 -30z"/>
<path d="M388 1310 l-5 -30 58 0 c41 0 58 4 63 15 12 32 -4 45 -59 45 -51 0
-53 -1 -57 -30z"/>
<path d="M1876 1332 c-12 -20 2 -47 26 -50 26 -3 40 18 31 46 -5 13 -49 17
-57 4z"/>
<path d="M82 1190 l0 -90 34 0 33 0 -4 60 -5 60 60 0 c60 0 60 0 60 30 l0 30
-89 0 -90 0 1 -90z"/>
<path d="M626 1264 c-3 -9 -6 -36 -6 -60 0 -45 0 -45 33 -42 32 3 32 3 33 61
0 55 -1 57 -27 57 -15 0 -29 -7 -33 -16z"/>
<path d="M326 1130 l4 -29 -93 -3 c-90 -3 -92 -3 -92 -28 0 -20 6 -26 30 -30
23 -4 29 -10 30 -30 0 -24 -4 -25 -63 -28 -62 -3 -62 -3 -60 -32 2 -26 6 -30
33 -30 28 0 32 -3 32 -30 0 -27 -3 -30 -34 -30 -30 0 -33 -3 -33 -30 0 -28 3
-30 35 -30 33 0 35 -2 32 -27 -3 -23 -9 -29 -35 -31 -27 -3 -30 -7 -29 -30 2
-26 4 -27 62 -27 59 0 60 0 57 28 -3 25 0 27 33 27 36 0 36 -1 35 -37 -4 -79
-2 -83 30 -83 26 0 29 -3 27 -27 -2 -25 1 -28 28 -28 30 0 30 0 29 57 l-1 57
61 3 c59 3 61 4 59 30 -1 23 3 27 30 30 27 2 32 7 32 28 0 20 -6 26 -26 28
-22 3 -27 -2 -32 -27 -5 -25 -12 -31 -32 -31 -18 0 -25 5 -25 20 0 11 -1 23
-2 28 -1 4 11 9 28 12 28 5 30 10 25 50 0 6 -12 10 -26 10 -23 0 -32 -17 -26
-52 0 -5 -13 -8 -29 -8 -17 0 -31 -6 -31 -12 -1 -7 -2 -33 -3 -58 -2 -41 -4
-45 -29 -48 -30 -4 -29 -6 -32 65 -2 51 -1 52 29 55 l30 3 -1 65 c-1 114 0
110 -32 110 -28 0 -28 -1 -27 -57 1 -55 0 -58 -25 -61 -21 -2 -28 -10 -33 -33
-4 -23 -11 -29 -31 -29 -14 0 -25 3 -25 8 -1 4 -3 31 -6 60 l-6 52 34 0 c32 0
34 2 30 29 -4 27 -1 30 29 33 30 3 34 6 33 31 -1 24 2 27 33 27 28 0 33 -3 29
-17 -8 -26 8 -45 35 -41 18 2 24 9 24 28 0 20 6 26 27 28 28 3 41 22 32 46 -3
8 -18 16 -32 18 -23 3 -27 7 -24 31 3 27 3 27 -61 27 l-64 0 3 -30z"/>
<path d="M1758 1155 c-3 -3 -3 -17 0 -30 3 -20 10 -25 34 -25 23 0 29 -4 24
-15 -9 -24 4 -45 29 -45 43 0 40 57 -4 62 -21 2 -26 8 -25 31 1 23 -3 27 -26
27 -15 0 -29 -2 -32 -5z"/>
<path d="M4198 1155 c-4 -4 -4 -18 -2 -31 4 -21 1 -24 -26 -24 -27 0 -30 -3
-30 -30 0 -27 3 -30 30 -30 27 0 30 -3 30 -30 0 -25 4 -30 24 -30 29 0 31 6
31 100 0 73 -1 75 -25 78 -14 2 -29 0 -32 -3z"/>
<path d="M4312 1073 c2 -22 9 -29 31 -31 26 -3 27 -5 27 -63 0 -59 0 -59 -30
-59 -27 0 -30 3 -30 31 0 27 -3 30 -27 27 -22 -2 -28 -9 -30 -30 -2 -25 2 -28
28 -28 26 0 29 -3 29 -30 0 -27 3 -30 30 -30 27 0 30 3 30 30 0 27 3 30 30 30
l30 0 0 60 0 60 -30 0 c-27 0 -30 3 -30 30 0 27 -3 30 -31 30 -27 0 -30 -3
-27 -27z"/>
<path d="M84 605 c-10 -25 4 -45 30 -45 30 0 37 9 29 38 -6 26 -50 31 -59 7z"/>
<path d="M80 295 l1 -205 209 0 209 0 6 43 c4 24 5 115 3 203 l-3 159 -213 3
-212 2 0 -205z m365 120 c4 -16 5 -82 3 -145 l-3 -115 -150 -3 -150 -3 0 143
c0 103 3 144 12 148 7 3 73 5 148 5 l135 0 5 -30z"/>
<path d="M208 385 c-2 -2 -2 -42 0 -89 l3 -87 87 3 87 3 0 85 0 85 -87 1 c-48
1 -88 1 -90 -1z"/>
<path d="M1162 473 c2 -22 9 -29 31 -31 24 -3 27 0 27 27 0 28 -3 31 -31 31
-27 0 -30 -3 -27 -27z"/>
<path d="M569 423 c-1 -13 -1 -34 -1 -48 0 -43 1 -45 30 -45 24 0 28 -4 27
-30 0 -26 -4 -30 -26 -30 -18 0 -28 -6 -32 -19 -7 -27 7 -43 34 -39 18 2 24 9
24 28 0 23 4 25 58 28 56 3 57 4 57 32 0 28 -1 29 -57 32 l-58 3 -1 54 c0 52
-1 54 -27 55 -21 1 -27 -3 -28 -21z"/>
<path d="M937 442 c-13 -3 -17 -15 -17 -58 0 -53 0 -54 29 -54 25 0 30 4 33
28 2 21 9 28 31 30 24 3 27 0 27 -27 0 -28 3 -31 30 -31 27 0 30 -3 30 -30 0
-27 -3 -30 -30 -30 -27 0 -30 -3 -30 -30 0 -27 3 -30 30 -30 27 0 30 3 30 30
0 27 3 30 31 30 27 0 30 3 27 28 -2 21 -9 28 -30 30 -21 3 -27 9 -30 30 -2 21
-9 28 -30 30 -22 3 -28 9 -28 28 0 13 -6 24 -12 25 -59 3 -77 4 -91 1z"/>
<path d="M1227 324 c-4 -4 -7 -18 -7 -31 0 -19 5 -23 31 -23 27 0 30 3 27 28
-3 26 -34 43 -51 26z"/>
<path d="M867 263 c-4 -3 -7 -17 -7 -30 0 -22 -3 -23 -85 -23 -49 0 -85 -4
-86 -10 0 -5 -1 -23 -1 -40 0 -67 1 -70 26 -70 19 0 25 6 28 27 3 24 8 28 33
28 19 0 30 -5 31 -15 1 -8 2 -21 3 -27 0 -7 12 -13 26 -13 24 0 25 3 25 60 l0
60 30 0 30 0 0 -60 0 -60 90 0 90 0 0 30 0 30 -60 0 -60 0 0 30 c0 27 -3 30
-30 30 -27 0 -30 3 -30 30 0 25 -4 30 -23 30 -13 0 -27 -3 -30 -7z"/>
<path d="M3240 180 c0 -27 3 -30 30 -30 27 0 30 -3 30 -30 0 -27 3 -30 30 -30
27 0 30 3 30 30 0 27 -3 30 -30 30 -27 0 -30 3 -30 30 0 27 -3 30 -30 30 -27
0 -30 -3 -30 -30z"/>
</g>
</svg>
